<svg width="40" height="40" viewBox="0 0 40 40" fill="none" xmlns="http://www.w3.org/2000/svg">
<path opacity="0.2" d="M20 40C31.0457 40 40 31.0457 40 20C40 8.9543 31.0457 0 20 0C8.9543 0 0 8.9543 0 20C0 31.0457 8.9543 40 20 40Z" fill="#F9B71C"/>
<path fill-rule="evenodd" clip-rule="evenodd" d="M19.9999 32.2704C26.7766 32.2704 32.2703 26.7768 32.2703 20C32.2703 13.2233 26.7766 7.72961 19.9999 7.72961C13.2231 7.72961 7.72949 13.2233 7.72949 20C7.72949 26.7768 13.2231 32.2704 19.9999 32.2704Z" fill="#F9B71C" stroke="#F6EC34" stroke-width="1.13636"/>
<path fill-rule="evenodd" clip-rule="evenodd" d="M16.2329 16.2331H23.8413V23.8415H16.2329V16.2331Z" fill="#4E4E38" stroke="#F6EC34" stroke-width="0.5"/>
</svg>
