<svg width="40" height="40" viewBox="0 0 40 40" fill="none" xmlns="http://www.w3.org/2000/svg">
<path fill-rule="evenodd" clip-rule="evenodd" d="M19.972 22.8134C21.5442 22.8134 22.8187 21.5538 22.8187 20C22.8187 18.4462 21.5442 17.1866 19.972 17.1866C18.3999 17.1866 17.1254 18.4462 17.1254 20C17.1254 21.5538 18.3999 22.8134 19.972 22.8134Z" fill="white" stroke="#1F4F77" stroke-width="1.57638"/>
<path fill-rule="evenodd" clip-rule="evenodd" d="M13.0508 26.0129C14.253 26.0129 15.2276 25.0497 15.2276 23.8615C15.2276 22.6733 14.253 21.7101 13.0508 21.7101C11.8485 21.7101 10.8739 22.6733 10.8739 23.8615C10.8739 25.0497 11.8485 26.0129 13.0508 26.0129Z" fill="white" stroke="#2C76B7" stroke-width="0.862245"/>
<path fill-rule="evenodd" clip-rule="evenodd" d="M13.0507 18.2347C14.2222 18.2347 15.1718 17.2962 15.1718 16.1385C15.1718 14.9808 14.2222 14.0423 13.0507 14.0423C11.8793 14.0423 10.9297 14.9808 10.9297 16.1385C10.9297 17.2962 11.8793 18.2347 13.0507 18.2347Z" fill="white" stroke="#2C76B7" stroke-width="0.840136"/>
<path fill-rule="evenodd" clip-rule="evenodd" d="M19.9721 14.2905C21.1589 14.2905 22.121 13.3397 22.121 12.1667C22.121 10.9938 21.1589 10.0429 19.9721 10.0429C18.7852 10.0429 17.8231 10.9938 17.8231 12.1667C17.8231 13.3397 18.7852 14.2905 19.9721 14.2905Z" fill="white" stroke="#2C76B7" stroke-width="0.85119"/>
<path fill-rule="evenodd" clip-rule="evenodd" d="M26.9213 18.2072C28.0928 18.2072 29.0424 17.2687 29.0424 16.1109C29.0424 14.9532 28.0928 14.0147 26.9213 14.0147C25.7499 14.0147 24.8003 14.9532 24.8003 16.1109C24.8003 17.2687 25.7499 18.2072 26.9213 18.2072Z" fill="white" stroke="#2C76B7" stroke-width="0.840136"/>
<path fill-rule="evenodd" clip-rule="evenodd" d="M26.9213 26.0129C28.1081 26.0129 29.0703 25.062 29.0703 23.8891C29.0703 22.7161 28.1081 21.7652 26.9213 21.7652C25.7345 21.7652 24.7723 22.7161 24.7723 23.8891C24.7723 25.062 25.7345 26.0129 26.9213 26.0129Z" fill="white" stroke="#2C76B7" stroke-width="0.85119"/>
<path fill-rule="evenodd" clip-rule="evenodd" d="M19.972 30.2329C21.1897 30.2329 22.1768 29.2574 22.1768 28.0539C22.1768 26.8505 21.1897 25.875 19.972 25.875C18.7543 25.875 17.7672 26.8505 17.7672 28.0539C17.7672 29.2574 18.7543 30.2329 19.972 30.2329Z" fill="white" stroke="#2C76B7" stroke-width="0.873299"/>
<path fill-rule="evenodd" clip-rule="evenodd" d="M8.92024 27.5575C9.59843 27.5575 10.1482 27.0141 10.1482 26.3439C10.1482 25.6736 9.59843 25.1302 8.92024 25.1302C8.24205 25.1302 7.69226 25.6736 7.69226 26.3439C7.69226 27.0141 8.24205 27.5575 8.92024 27.5575Z" fill="#2C76B7"/>
<path fill-rule="evenodd" clip-rule="evenodd" d="M19.972 33.8462C20.6502 33.8462 21.2 33.3028 21.2 32.6325C21.2 31.9623 20.6502 31.4189 19.972 31.4189C19.2938 31.4189 18.744 31.9623 18.744 32.6325C18.744 33.3028 19.2938 33.8462 19.972 33.8462Z" fill="#2C76B7"/>
<path fill-rule="evenodd" clip-rule="evenodd" d="M31.0797 27.5575C31.7579 27.5575 32.3076 27.0141 32.3076 26.3439C32.3076 25.6736 31.7579 25.1302 31.0797 25.1302C30.4015 25.1302 29.8517 25.6736 29.8517 26.3439C29.8517 27.0141 30.4015 27.5575 31.0797 27.5575Z" fill="#2C76B7"/>
<path fill-rule="evenodd" clip-rule="evenodd" d="M31.0797 14.9249C31.7579 14.9249 32.3076 14.3816 32.3076 13.7113C32.3076 13.0411 31.7579 12.4977 31.0797 12.4977C30.4015 12.4977 29.8517 13.0411 29.8517 13.7113C29.8517 14.3816 30.4015 14.9249 31.0797 14.9249Z" fill="#2C76B7"/>
<path fill-rule="evenodd" clip-rule="evenodd" d="M19.972 8.58106C20.6502 8.58106 21.2 8.03771 21.2 7.36745C21.2 6.6972 20.6502 6.15385 19.972 6.15385C19.2938 6.15385 18.744 6.6972 18.744 7.36745C18.744 8.03771 19.2938 8.58106 19.972 8.58106Z" fill="#2C76B7"/>
<path fill-rule="evenodd" clip-rule="evenodd" d="M8.92024 14.9249C9.59843 14.9249 10.1482 14.3816 10.1482 13.7113C10.1482 13.0411 9.59843 12.4977 8.92024 12.4977C8.24205 12.4977 7.69226 13.0411 7.69226 13.7113C7.69226 14.3816 8.24205 14.9249 8.92024 14.9249Z" fill="#2C76B7"/>
<path d="M9.41124 14.26L10.9741 15.1426L11.22 14.7072L9.65712 13.8246L9.41124 14.26ZM9.71409 26.1803L11.277 25.2866L11.0288 24.8525L9.4659 25.7462L9.71409 26.1803ZM20.3288 32.1967V30.4205H19.8288V32.1967H20.3288ZM30.5897 25.7462L29.0268 24.8525L28.7787 25.2866L30.3415 26.1803L30.5897 25.7462ZM30.2465 13.8432L28.7394 14.814L29.0102 15.2344L30.5173 14.2635L30.2465 13.8432ZM19.773 8.0239V9.80018H20.273V8.0239H19.773ZM15.5173 14.983L18.0849 13.5432L17.8403 13.1071L15.2727 14.5469L15.5173 14.983ZM22.0307 13.6417L24.5871 15.098L24.8346 14.6636L22.2782 13.2072L22.0307 13.6417ZM26.5827 18.7643V21.6825H27.0827V18.7643H26.5827ZM24.5871 25.0123L22.0307 26.4686L22.2782 26.9031L24.8346 25.4468L24.5871 25.0123ZM17.8017 26.4135L15.2452 24.9572L14.9977 25.3916L17.5542 26.8479L17.8017 26.4135ZM13.4075 21.5722V18.654H12.9075V21.5722H13.4075Z" fill="#2C76B7"/>
</svg>
