<svg width="40" height="40" viewBox="0 0 40 40" fill="none" xmlns="http://www.w3.org/2000/svg">
<path opacity="0.2" d="M20 40C31.0457 40 40 31.0457 40 20C40 8.9543 31.0457 0 20 0C8.9543 0 0 8.9543 0 20C0 31.0457 8.9543 40 20 40Z" fill="#EDAB20"/>
<path fill-rule="evenodd" clip-rule="evenodd" d="M28.7192 11.1921C25.8154 11.1075 22.9057 11.1272 20.0019 11.1784C19.9623 12.4655 19.9756 13.7525 19.989 15.0396C19.9915 15.2767 19.9939 15.5138 19.9961 15.7509C20.3877 15.7529 20.7793 15.7529 21.1729 15.7529C21.0024 17.3702 20.804 18.9847 20.6055 20.5992C20.3912 22.3423 20.1769 24.0852 19.998 25.8314C19.9785 27.8282 19.9628 29.827 20.0078 31.8238C22.3555 31.1976 24.7071 30.5694 27.0333 29.8644C27.1565 29.1358 27.2138 28.3994 27.2711 27.6636C27.3048 27.23 27.3385 26.7966 27.3857 26.3651C27.523 24.8095 27.6623 23.2544 27.8016 21.6993C28.1153 18.1971 28.429 14.6956 28.7192 11.1921ZM21.8719 18.7461C21.8836 18.1258 21.8836 17.5055 21.8797 16.8872C22.7104 17.4798 23.562 18.0415 24.4135 18.6032C25.0813 19.0437 25.7491 19.4842 26.4067 19.9395C26.4028 20.5046 26.4047 21.0698 26.4106 21.635C25.6741 22.1349 24.9328 22.6273 24.1914 23.1198C23.4173 23.6341 22.643 24.1484 21.8738 24.6715C21.8797 24.0571 21.8836 23.4427 21.8797 22.8283C22.8959 22.1371 23.9239 21.4656 24.9578 20.804C24.5454 20.5248 24.1286 20.2524 23.7118 19.98C23.0936 19.576 22.4754 19.1719 21.8719 18.7461Z" fill="#EDAB20"/>
<path fill-rule="evenodd" clip-rule="evenodd" d="M28.7192 11.1921C25.8154 11.1075 22.9057 11.1272 20.0019 11.1784C19.9623 12.4655 19.9756 13.7525 19.989 15.0396C19.9915 15.2767 19.9939 15.5138 19.9961 15.7509C20.3877 15.7529 20.7793 15.7529 21.1729 15.7529C21.0024 17.3702 20.804 18.9847 20.6055 20.5992C20.3912 22.3423 20.1769 24.0852 19.998 25.8314C19.9785 27.8282 19.9628 29.827 20.0078 31.8238C22.3555 31.1976 24.7071 30.5694 27.0333 29.8644C27.1565 29.1358 27.2138 28.3994 27.2711 27.6636C27.3048 27.23 27.3385 26.7966 27.3857 26.3651C27.523 24.8095 27.6623 23.2544 27.8016 21.6993C28.1153 18.1971 28.429 14.6956 28.7192 11.1921ZM21.8719 18.7461C21.8836 18.1258 21.8836 17.5055 21.8797 16.8872C22.7104 17.4798 23.562 18.0415 24.4135 18.6032C25.0813 19.0437 25.7491 19.4842 26.4067 19.9395C26.4028 20.5046 26.4047 21.0698 26.4106 21.635C25.6741 22.1349 24.9328 22.6273 24.1914 23.1198C23.4173 23.6341 22.643 24.1484 21.8738 24.6715C21.8797 24.0571 21.8836 23.4427 21.8797 22.8283C22.8959 22.1371 23.9239 21.4656 24.9578 20.804C24.5454 20.5248 24.1286 20.2524 23.7118 19.98C23.0936 19.576 22.4754 19.1719 21.8719 18.7461Z" fill="#F4C215"/>
<path fill-rule="evenodd" clip-rule="evenodd" d="M19.9962 15.7509C20.3878 15.7529 20.7794 15.7529 21.173 15.7529C20.8186 19.1163 20.3428 22.468 19.9982 25.8314C19.5909 25.8393 19.1836 25.8413 18.7744 25.8452C19.1895 22.4817 19.5713 19.1124 19.9962 15.7509Z" fill="#F7F7F6"/>
<path fill-rule="evenodd" clip-rule="evenodd" d="M13.7617 19.9434C15.2538 18.9154 16.783 17.9466 18.2672 16.9108C18.2084 17.5311 18.3631 18.1947 18.1967 18.7914C17.2196 19.4924 16.1956 20.1265 15.1891 20.7862C16.2034 21.4794 17.247 22.1273 18.2613 22.8204C18.2593 23.4309 18.2633 24.0414 18.2672 24.6498C16.7732 23.6357 15.2538 22.653 13.7598 21.635C13.7735 21.0718 13.7735 20.5066 13.7617 19.9434Z" fill="#F7F7F6"/>
<path fill-rule="evenodd" clip-rule="evenodd" d="M21.8799 16.8871C23.3621 17.9446 24.9109 18.9036 26.4069 19.9395C26.403 20.5046 26.4049 21.0698 26.4108 21.635C24.9051 22.657 23.3798 23.6475 21.874 24.6715C21.8799 24.0571 21.8838 23.4427 21.8799 22.8283C22.8961 22.1371 23.9241 21.4656 24.9579 20.8039C23.9339 20.1108 22.8824 19.459 21.8721 18.7461C21.8838 18.1258 21.8838 17.5055 21.8799 16.8871Z" fill="#F7F7F6"/>
</svg>
