<svg width="40" height="40" viewBox="0 0 40 40" fill="none" xmlns="http://www.w3.org/2000/svg">
<g opacity="0.2">
<path d="M39.8915 20.0005C39.8915 30.988 30.9846 39.8952 19.9972 39.8952C9.00961 39.8952 0.102539 30.988 0.102539 20.0005C0.102539 9.01303 9.00961 0.105957 19.9972 0.105957C30.9845 0.105957 39.8915 9.01303 39.8915 20.0005" fill="#83BD67"/>
<path d="M39.8915 20.0005C39.8915 30.988 30.9846 39.8952 19.9972 39.8952C9.00961 39.8952 0.102539 30.988 0.102539 20.0005C0.102539 9.01303 9.00961 0.105957 19.9972 0.105957C30.9845 0.105957 39.8915 9.01303 39.8915 20.0005" fill="black" fill-opacity="0.25"/>
</g>
<g opacity="0.8">
<path d="M19.9334 10.7693L19.8105 11.187V23.3066L19.9334 23.4293L25.5593 20.1039L19.9334 10.7693Z" fill="white"/>
<path d="M19.9334 10.7693L14.3076 20.1039L19.9334 23.4294V17.5468V10.7693Z" fill="white"/>
<path d="M19.9335 25.2598L19.8643 25.3442V29.6615L19.9335 29.8637L25.5627 21.936L19.9335 25.2598Z" fill="white"/>
<path d="M19.9334 29.8638V25.2598L14.3076 21.936L19.9334 29.8638Z" fill="white"/>
<path d="M19.9336 23.4293L25.5593 20.104L19.9336 17.5469V23.4293Z" fill="white"/>
<path d="M14.3076 20.104L19.9334 23.4294V17.5469L14.3076 20.104Z" fill="white"/>
</g>
</svg>
