<svg width="68" height="68" viewBox="0 0 68 68" fill="none" xmlns="http://www.w3.org/2000/svg">
<path d="M38.5858 14.5858C39.3668 13.8047 40.6332 13.8047 41.4142 14.5858L49.4142 22.5858C50.1953 23.3668 50.1953 24.6332 49.4142 25.4142L41.4142 33.4142C40.6332 34.1953 39.3668 34.1953 38.5858 33.4142C37.8047 32.6332 37.8047 31.3668 38.5858 30.5858L43.1716 26L20 26C18.8954 26 18 25.1046 18 24C18 22.8954 18.8954 22 20 22L43.1716 22L38.5858 17.4142C37.8047 16.6332 37.8047 15.3668 38.5858 14.5858ZM29.4142 34.5858C30.1953 35.3668 30.1953 36.6332 29.4142 37.4142L24.8284 42H48C49.1046 42 50 42.8954 50 44C50 45.1046 49.1046 46 48 46H24.8284L29.4142 50.5858C30.1953 51.3668 30.1953 52.6332 29.4142 53.4142C28.6332 54.1953 27.3668 54.1953 26.5858 53.4142L18.5858 45.4142C18.2107 45.0391 18 44.5304 18 44C18 43.4696 18.2107 42.9609 18.5858 42.5858L26.5858 34.5858C27.3668 33.8047 28.6332 33.8047 29.4142 34.5858Z" fill="white"/>
</svg>
