<svg width="60" height="60" viewBox="0 0 60 60" fill="none" xmlns="http://www.w3.org/2000/svg">
<path opacity="0.2" fill-rule="evenodd" clip-rule="evenodd" d="M30 60C46.5685 60 60 46.5685 60 30C60 13.4315 46.5685 0 30 0C13.4315 0 0 13.4315 0 30C0 46.5685 13.4315 60 30 60Z" fill="#83BD67"/>
<path fill-rule="evenodd" clip-rule="evenodd" d="M27.3716 16.1538C29.0192 16.1538 30.6607 16.1538 32.3083 16.1538C32.2114 17.2684 32.1084 18.389 32.0176 19.5035C33.9378 19.6429 35.8095 20.2607 37.4934 21.1754C36.7666 23.0047 36.0336 24.834 35.3007 26.6633C33.8833 25.4579 32.0176 24.7916 30.158 24.8158C29.6916 24.828 29.207 24.9188 28.8193 25.1853C28.5649 25.361 28.3771 25.6336 28.3226 25.9365C28.2802 26.1788 28.2923 26.4513 28.4256 26.6694C28.577 26.9117 28.8435 27.0571 29.11 27.1479C29.6552 27.3418 30.2428 27.3539 30.8122 27.4145C32.1508 27.578 33.4956 27.8082 34.7616 28.2867C35.7429 28.6623 36.6818 29.2256 37.3541 30.0494C37.9902 30.8066 38.3597 31.7637 38.499 32.7449C38.6625 33.8777 38.6141 35.0528 38.2627 36.1552C37.9902 37.0396 37.5237 37.8634 36.918 38.56C35.6641 40.0138 33.8227 40.8861 31.9328 41.1102C31.9934 42.3035 32.066 43.4907 32.1327 44.684C30.5699 44.684 29.0131 44.684 27.4564 44.684C27.517 43.5028 27.5957 42.3217 27.6502 41.1405C26.3963 41.0981 25.1546 40.8194 23.9855 40.3772C22.8528 39.9472 21.7746 39.3778 20.769 38.7115C21.508 36.8094 22.247 34.9074 22.9921 32.9994C23.8341 33.7081 24.7306 34.3683 25.7119 34.8711C26.7658 35.4102 27.9349 35.7555 29.1222 35.7676C29.6855 35.7736 30.267 35.7433 30.8001 35.5495C31.1271 35.4284 31.4482 35.2164 31.5936 34.8832C31.745 34.5319 31.7329 34.0897 31.5027 33.7747C31.3392 33.5627 31.109 33.4173 30.8667 33.3143C30.5396 33.1811 30.2004 33.1084 29.8551 33.0539C28.5831 32.8479 27.3049 32.6783 26.0753 32.2785C25.0879 31.9575 24.1248 31.5092 23.3374 30.8187C22.8407 30.3886 22.4288 29.8616 22.138 29.268C21.7019 28.3836 21.5383 27.3842 21.5504 26.4029C21.5504 25.3065 21.7746 24.1919 22.3197 23.2288C22.7922 22.3687 23.513 21.666 24.3247 21.1269C25.306 20.4788 26.4024 20.0366 27.517 19.6792C27.4685 18.5041 27.42 17.3289 27.3716 16.1538Z" fill="#83BD67"/>
</svg>
