<svg width="360" height="235" viewBox="0 0 360 235" fill="none" xmlns="http://www.w3.org/2000/svg">
<g filter="url(#filter0_d_950_11414)">
<g clip-path="url(#clip0_950_11414)">
<rect x="11" y="12" width="338" height="203" rx="8" fill="#F8F9F9"/>
<path opacity="0.1" d="M37 187L44 173.5L59.5 167L69 149.5L78 126.5L84.5 136L92 130L101 137.5L114.5 142L124 151L141 172.5L172 182.5L190 170L207 155C210.333 157.667 217.2 163.1 218 163.5C218.8 163.9 228 161.333 232.5 160L237.5 155L254 158.5L273 167L296.5 155L307 144.5L314 121.5H336C337.667 125.333 341.4 133.9 343 137.5C344.6 141.1 358 153 364.5 158.5L373 172.5L381 163.5L394.5 158.5C396.167 162.833 400.1 171.7 402.5 172.5C404.9 173.3 407.833 169.167 409 167" stroke="#003249" stroke-width="4" stroke-linecap="round" stroke-linejoin="round"/>
<path d="M37 188L45 181.5L53.5 188L60.5 178.5L75.5 168.5H84.5L93.5 161.5L111.5 152.5L125.5 161.5L132.5 152.5L144.5 147.5L157.5 141L166 132L169.5 113L192.5 108.5C194 105.167 197.3 98.2 198.5 97C199.7 95.8 213 84.5 219.5 79H232L249.5 69.5L264.5 83.5V101L279.5 108.5L303.5 91.5L324.5 97L338.5 86L352.5 83.5L358.5 101L372 103.5C375.167 100.333 381.7 93.5 382.5 91.5C383.3 89.5 386.833 76 388.5 69.5L397.5 65.5L401.5 62L404 51" stroke="#27AE60" stroke-width="4" stroke-linecap="round" stroke-linejoin="round"/>
<g opacity="0.5">
<path d="M17.4216 67C17.3363 67 17.2637 66.9744 17.204 66.9232C17.1528 66.8635 17.1272 66.7909 17.1272 66.7056V66.296C17.1272 66.2192 17.1485 66.1339 17.1912 66.04C17.2339 65.9461 17.3192 65.8437 17.4472 65.7328L20.1608 63.0192C20.596 62.6523 20.9373 62.3408 21.1848 62.0848C21.4408 61.8203 21.62 61.5685 21.7224 61.3296C21.8333 61.0907 21.8888 60.8432 21.8888 60.5872C21.8888 60.1008 21.7523 59.7168 21.4792 59.4352C21.2061 59.1451 20.8008 59 20.2632 59C19.9219 59 19.6275 59.0725 19.38 59.2176C19.1325 59.3541 18.9363 59.5461 18.7912 59.7936C18.6547 60.0325 18.5651 60.3056 18.5224 60.6128C18.5053 60.7237 18.4584 60.8005 18.3816 60.8432C18.3133 60.8859 18.2493 60.9072 18.1896 60.9072H17.524C17.4472 60.9072 17.3832 60.8859 17.332 60.8432C17.2808 60.792 17.2552 60.7323 17.2552 60.664C17.2637 60.3397 17.332 60.0155 17.46 59.6912C17.588 59.3584 17.7757 59.0597 18.0232 58.7952C18.2792 58.5307 18.5907 58.3173 18.9576 58.1552C19.3331 57.9845 19.7683 57.8992 20.2632 57.8992C20.9373 57.8992 21.4877 58.0229 21.9144 58.2704C22.3496 58.5093 22.6696 58.8293 22.8744 59.2304C23.0792 59.6315 23.1816 60.0709 23.1816 60.5488C23.1816 60.9243 23.1176 61.2699 22.9896 61.5856C22.8616 61.8928 22.6739 62.1957 22.4264 62.4944C22.1875 62.7845 21.8888 63.0832 21.5304 63.3904L19.0728 65.8864H23.0664C23.1603 65.8864 23.2328 65.912 23.284 65.9632C23.3437 66.0144 23.3736 66.0869 23.3736 66.1808V66.7056C23.3736 66.7909 23.3437 66.8635 23.284 66.9232C23.2328 66.9744 23.1603 67 23.0664 67H17.4216ZM28.0701 67.128C27.4813 67.128 26.9821 67.0384 26.5725 66.8592C26.1714 66.6715 25.8429 66.4155 25.5869 66.0912C25.3309 65.7669 25.1432 65.3957 25.0237 64.9776C24.9128 64.5595 24.8488 64.1157 24.8317 63.6464C24.8232 63.416 24.8146 63.1728 24.8061 62.9168C24.8061 62.6608 24.8061 62.4048 24.8061 62.1488C24.8146 61.8843 24.8232 61.6325 24.8317 61.3936C24.8402 60.9243 24.9042 60.4805 25.0237 60.0624C25.1517 59.6357 25.3394 59.2645 25.5869 58.9488C25.8429 58.6245 26.1757 58.3728 26.5853 58.1936C26.9949 58.0059 27.4898 57.912 28.0701 57.912C28.6589 57.912 29.1538 58.0059 29.5549 58.1936C29.9645 58.3728 30.2973 58.6245 30.5533 58.9488C30.8093 59.2645 30.997 59.6357 31.1165 60.0624C31.2445 60.4805 31.3128 60.9243 31.3213 61.3936C31.3298 61.6325 31.3341 61.8843 31.3341 62.1488C31.3426 62.4048 31.3426 62.6608 31.3341 62.9168C31.3341 63.1728 31.3298 63.416 31.3213 63.6464C31.3128 64.1157 31.2445 64.5595 31.1165 64.9776C30.997 65.3957 30.8093 65.7669 30.5533 66.0912C30.3058 66.4155 29.9773 66.6715 29.5677 66.8592C29.1666 67.0384 28.6674 67.128 28.0701 67.128ZM28.0701 66.04C28.7357 66.04 29.2264 65.8224 29.5421 65.3872C29.8664 64.9435 30.0328 64.3419 30.0413 63.5824C30.0584 63.3349 30.0669 63.096 30.0669 62.8656C30.0669 62.6267 30.0669 62.392 30.0669 62.1616C30.0669 61.9227 30.0584 61.688 30.0413 61.4576C30.0328 60.7152 29.8664 60.1221 29.5421 59.6784C29.2264 59.2261 28.7357 59 28.0701 59C27.413 59 26.9224 59.2261 26.5981 59.6784C26.2824 60.1221 26.116 60.7152 26.0989 61.4576C26.0989 61.688 26.0946 61.9227 26.0861 62.1616C26.0861 62.392 26.0861 62.6267 26.0861 62.8656C26.0946 63.096 26.0989 63.3349 26.0989 63.5824C26.116 64.3419 26.2866 64.9435 26.6109 65.3872C26.9352 65.8224 27.4216 66.04 28.0701 66.04Z" fill="#007EA7"/>
<path d="M22.0328 98C21.9475 98 21.8749 97.9744 21.8152 97.9232C21.764 97.8635 21.7384 97.7909 21.7384 97.7056V90.5376L19.6136 92.176C19.5453 92.2272 19.4728 92.2485 19.396 92.24C19.3192 92.2315 19.2552 92.1931 19.204 92.1248L18.8712 91.7024C18.82 91.6256 18.7987 91.5488 18.8072 91.472C18.8243 91.3952 18.8669 91.3312 18.9352 91.28L21.7256 89.1296C21.7853 89.0869 21.8408 89.0613 21.892 89.0528C21.9432 89.0443 21.9987 89.04 22.0584 89.04H22.7112C22.7965 89.04 22.8648 89.0699 22.916 89.1296C22.9672 89.1808 22.9928 89.2491 22.9928 89.3344V97.7056C22.9928 97.7909 22.9672 97.8635 22.916 97.9232C22.8648 97.9744 22.7965 98 22.7112 98H22.0328ZM27.7126 98.128C27.0385 98.128 26.4667 98.0128 25.9974 97.7824C25.5366 97.5435 25.1825 97.2363 24.935 96.8608C24.6961 96.4853 24.5681 96.0885 24.551 95.6704C24.5425 95.5936 24.5638 95.5339 24.615 95.4912C24.6662 95.4485 24.7302 95.4272 24.807 95.4272H25.4982C25.575 95.4272 25.6433 95.4443 25.703 95.4784C25.7627 95.5125 25.8097 95.5851 25.8438 95.696C25.9291 96.0117 26.0657 96.272 26.2534 96.4768C26.4497 96.6731 26.6715 96.8181 26.919 96.912C27.175 96.9973 27.4395 97.04 27.7126 97.04C28.0795 97.04 28.4123 96.9675 28.711 96.8224C29.0182 96.6688 29.2614 96.4469 29.4406 96.1568C29.6198 95.8581 29.7094 95.4997 29.7094 95.0816C29.7094 94.6976 29.6198 94.3691 29.4406 94.096C29.2699 93.8144 29.031 93.6011 28.7238 93.456C28.4251 93.3024 28.0881 93.2256 27.7126 93.2256C27.431 93.2256 27.2006 93.2597 27.0214 93.328C26.8422 93.3963 26.6886 93.4773 26.5606 93.5712C26.4411 93.6651 26.3302 93.7461 26.2278 93.8144C26.1339 93.8827 26.0273 93.9168 25.9078 93.9168H25.2422C25.1654 93.9168 25.0971 93.8912 25.0374 93.84C24.9777 93.7803 24.9521 93.712 24.9606 93.6352L25.3702 89.36C25.3787 89.2576 25.4086 89.1808 25.4598 89.1296C25.5195 89.0699 25.5963 89.04 25.6902 89.04H30.1574C30.2427 89.04 30.311 89.0699 30.3622 89.1296C30.4219 89.1808 30.4518 89.2491 30.4518 89.3344V89.8336C30.4518 89.9275 30.4219 90 30.3622 90.0512C30.311 90.1024 30.2427 90.128 30.1574 90.128H26.471L26.2278 92.6496C26.3473 92.5728 26.5393 92.4832 26.8038 92.3808C27.0683 92.2699 27.431 92.2144 27.8918 92.2144C28.3099 92.2144 28.7025 92.2784 29.0694 92.4064C29.4449 92.5344 29.7777 92.7221 30.0678 92.9696C30.3579 93.2171 30.5841 93.52 30.7462 93.8784C30.9083 94.2283 30.9894 94.6336 30.9894 95.0944C30.9894 95.7429 30.8443 96.2933 30.5542 96.7456C30.2726 97.1979 29.8843 97.5435 29.3894 97.7824C28.903 98.0128 28.3441 98.128 27.7126 98.128Z" fill="#007EA7"/>
<path d="M22.0328 129C21.9475 129 21.8749 128.974 21.8152 128.923C21.764 128.863 21.7384 128.791 21.7384 128.706V121.538L19.6136 123.176C19.5453 123.227 19.4728 123.249 19.396 123.24C19.3192 123.231 19.2552 123.193 19.204 123.125L18.8712 122.702C18.82 122.626 18.7987 122.549 18.8072 122.472C18.8243 122.395 18.8669 122.331 18.9352 122.28L21.7256 120.13C21.7853 120.087 21.8408 120.061 21.892 120.053C21.9432 120.044 21.9987 120.04 22.0584 120.04H22.7112C22.7965 120.04 22.8648 120.07 22.916 120.13C22.9672 120.181 22.9928 120.249 22.9928 120.334V128.706C22.9928 128.791 22.9672 128.863 22.916 128.923C22.8648 128.974 22.7965 129 22.7112 129H22.0328ZM28.0326 129.128C27.4438 129.128 26.9446 129.038 26.535 128.859C26.1339 128.671 25.8054 128.415 25.5494 128.091C25.2934 127.767 25.1057 127.396 24.9862 126.978C24.8753 126.559 24.8113 126.116 24.7942 125.646C24.7857 125.416 24.7771 125.173 24.7686 124.917C24.7686 124.661 24.7686 124.405 24.7686 124.149C24.7771 123.884 24.7857 123.633 24.7942 123.394C24.8027 122.924 24.8667 122.481 24.9862 122.062C25.1142 121.636 25.3019 121.265 25.5494 120.949C25.8054 120.625 26.1382 120.373 26.5478 120.194C26.9574 120.006 27.4523 119.912 28.0326 119.912C28.6214 119.912 29.1163 120.006 29.5174 120.194C29.927 120.373 30.2598 120.625 30.5158 120.949C30.7718 121.265 30.9595 121.636 31.079 122.062C31.207 122.481 31.2753 122.924 31.2838 123.394C31.2923 123.633 31.2966 123.884 31.2966 124.149C31.3051 124.405 31.3051 124.661 31.2966 124.917C31.2966 125.173 31.2923 125.416 31.2838 125.646C31.2753 126.116 31.207 126.559 31.079 126.978C30.9595 127.396 30.7718 127.767 30.5158 128.091C30.2683 128.415 29.9398 128.671 29.5302 128.859C29.1291 129.038 28.6299 129.128 28.0326 129.128ZM28.0326 128.04C28.6982 128.04 29.1889 127.822 29.5046 127.387C29.8289 126.943 29.9953 126.342 30.0038 125.582C30.0209 125.335 30.0294 125.096 30.0294 124.866C30.0294 124.627 30.0294 124.392 30.0294 124.162C30.0294 123.923 30.0209 123.688 30.0038 123.458C29.9953 122.715 29.8289 122.122 29.5046 121.678C29.1889 121.226 28.6982 121 28.0326 121C27.3755 121 26.8849 121.226 26.5606 121.678C26.2449 122.122 26.0785 122.715 26.0614 123.458C26.0614 123.688 26.0571 123.923 26.0486 124.162C26.0486 124.392 26.0486 124.627 26.0486 124.866C26.0571 125.096 26.0614 125.335 26.0614 125.582C26.0785 126.342 26.2491 126.943 26.5734 127.387C26.8977 127.822 27.3841 128.04 28.0326 128.04Z" fill="#007EA7"/>
<path d="M28.2376 160.128C27.5635 160.128 26.9917 160.013 26.5224 159.782C26.0616 159.543 25.7075 159.236 25.46 158.861C25.2211 158.485 25.0931 158.089 25.076 157.67C25.0675 157.594 25.0888 157.534 25.14 157.491C25.1912 157.449 25.2552 157.427 25.332 157.427H26.0232C26.1 157.427 26.1683 157.444 26.228 157.478C26.2877 157.513 26.3347 157.585 26.3688 157.696C26.4541 158.012 26.5907 158.272 26.7784 158.477C26.9747 158.673 27.1965 158.818 27.444 158.912C27.7 158.997 27.9645 159.04 28.2376 159.04C28.6045 159.04 28.9373 158.967 29.236 158.822C29.5432 158.669 29.7864 158.447 29.9656 158.157C30.1448 157.858 30.2344 157.5 30.2344 157.082C30.2344 156.698 30.1448 156.369 29.9656 156.096C29.7949 155.814 29.556 155.601 29.2488 155.456C28.9501 155.302 28.6131 155.226 28.2376 155.226C27.956 155.226 27.7256 155.26 27.5464 155.328C27.3672 155.396 27.2136 155.477 27.0856 155.571C26.9661 155.665 26.8552 155.746 26.7528 155.814C26.6589 155.883 26.5523 155.917 26.4328 155.917H25.7672C25.6904 155.917 25.6221 155.891 25.5624 155.84C25.5027 155.78 25.4771 155.712 25.4856 155.635L25.8952 151.36C25.9037 151.258 25.9336 151.181 25.9848 151.13C26.0445 151.07 26.1213 151.04 26.2152 151.04H30.6824C30.7677 151.04 30.836 151.07 30.8872 151.13C30.9469 151.181 30.9768 151.249 30.9768 151.334V151.834C30.9768 151.927 30.9469 152 30.8872 152.051C30.836 152.102 30.7677 152.128 30.6824 152.128H26.996L26.7528 154.65C26.8723 154.573 27.0643 154.483 27.3288 154.381C27.5933 154.27 27.956 154.214 28.4168 154.214C28.8349 154.214 29.2275 154.278 29.5944 154.406C29.9699 154.534 30.3027 154.722 30.5928 154.97C30.8829 155.217 31.1091 155.52 31.2712 155.878C31.4333 156.228 31.5144 156.634 31.5144 157.094C31.5144 157.743 31.3693 158.293 31.0792 158.746C30.7976 159.198 30.4093 159.543 29.9144 159.782C29.428 160.013 28.8691 160.128 28.2376 160.128Z" fill="#007EA7"/>
<path d="M27.5576 191.128C26.9688 191.128 26.4696 191.038 26.06 190.859C25.6589 190.671 25.3304 190.415 25.0744 190.091C24.8184 189.767 24.6307 189.396 24.5112 188.978C24.4003 188.559 24.3363 188.116 24.3192 187.646C24.3107 187.416 24.3021 187.173 24.2936 186.917C24.2936 186.661 24.2936 186.405 24.2936 186.149C24.3021 185.884 24.3107 185.633 24.3192 185.394C24.3277 184.924 24.3917 184.481 24.5112 184.062C24.6392 183.636 24.8269 183.265 25.0744 182.949C25.3304 182.625 25.6632 182.373 26.0728 182.194C26.4824 182.006 26.9773 181.912 27.5576 181.912C28.1464 181.912 28.6413 182.006 29.0424 182.194C29.452 182.373 29.7848 182.625 30.0408 182.949C30.2968 183.265 30.4845 183.636 30.604 184.062C30.732 184.481 30.8003 184.924 30.8088 185.394C30.8173 185.633 30.8216 185.884 30.8216 186.149C30.8301 186.405 30.8301 186.661 30.8216 186.917C30.8216 187.173 30.8173 187.416 30.8088 187.646C30.8003 188.116 30.732 188.559 30.604 188.978C30.4845 189.396 30.2968 189.767 30.0408 190.091C29.7933 190.415 29.4648 190.671 29.0552 190.859C28.6541 191.038 28.1549 191.128 27.5576 191.128ZM27.5576 190.04C28.2232 190.04 28.7139 189.822 29.0296 189.387C29.3539 188.943 29.5203 188.342 29.5288 187.582C29.5459 187.335 29.5544 187.096 29.5544 186.866C29.5544 186.627 29.5544 186.392 29.5544 186.162C29.5544 185.923 29.5459 185.688 29.5288 185.458C29.5203 184.715 29.3539 184.122 29.0296 183.678C28.7139 183.226 28.2232 183 27.5576 183C26.9005 183 26.4099 183.226 26.0856 183.678C25.7699 184.122 25.6035 184.715 25.5864 185.458C25.5864 185.688 25.5821 185.923 25.5736 186.162C25.5736 186.392 25.5736 186.627 25.5736 186.866C25.5821 187.096 25.5864 187.335 25.5864 187.582C25.6035 188.342 25.7741 188.943 26.0984 189.387C26.4227 189.822 26.9091 190.04 27.5576 190.04Z" fill="#007EA7"/>
</g>
<g opacity="0.34">
<path d="M35.5328 209C35.4475 209 35.3749 208.974 35.3152 208.923C35.264 208.863 35.2384 208.791 35.2384 208.706V201.538L33.1136 203.176C33.0453 203.227 32.9728 203.249 32.896 203.24C32.8192 203.231 32.7552 203.193 32.704 203.125L32.3712 202.702C32.32 202.626 32.2987 202.549 32.3072 202.472C32.3243 202.395 32.3669 202.331 32.4352 202.28L35.2256 200.13C35.2853 200.087 35.3408 200.061 35.392 200.053C35.4432 200.044 35.4987 200.04 35.5584 200.04H36.2112C36.2965 200.04 36.3648 200.07 36.416 200.13C36.4672 200.181 36.4928 200.249 36.4928 200.334V208.706C36.4928 208.791 36.4672 208.863 36.416 208.923C36.3648 208.974 36.2965 209 36.2112 209H35.5328ZM38.3966 209C38.3113 209 38.2387 208.974 38.179 208.923C38.1278 208.863 38.1022 208.791 38.1022 208.706V208.296C38.1022 208.219 38.1235 208.134 38.1662 208.04C38.2089 207.946 38.2942 207.844 38.4222 207.733L41.1358 205.019C41.571 204.652 41.9123 204.341 42.1598 204.085C42.4158 203.82 42.595 203.569 42.6974 203.33C42.8083 203.091 42.8638 202.843 42.8638 202.587C42.8638 202.101 42.7273 201.717 42.4542 201.435C42.1811 201.145 41.7758 201 41.2382 201C40.8969 201 40.6025 201.073 40.355 201.218C40.1075 201.354 39.9113 201.546 39.7662 201.794C39.6297 202.033 39.5401 202.306 39.4974 202.613C39.4803 202.724 39.4334 202.801 39.3566 202.843C39.2883 202.886 39.2243 202.907 39.1646 202.907H38.499C38.4222 202.907 38.3582 202.886 38.307 202.843C38.2558 202.792 38.2302 202.732 38.2302 202.664C38.2387 202.34 38.307 202.015 38.435 201.691C38.563 201.358 38.7507 201.06 38.9982 200.795C39.2542 200.531 39.5657 200.317 39.9326 200.155C40.3081 199.985 40.7433 199.899 41.2382 199.899C41.9123 199.899 42.4627 200.023 42.8894 200.27C43.3246 200.509 43.6446 200.829 43.8494 201.23C44.0542 201.631 44.1566 202.071 44.1566 202.549C44.1566 202.924 44.0926 203.27 43.9646 203.586C43.8366 203.893 43.6489 204.196 43.4014 204.494C43.1625 204.785 42.8638 205.083 42.5054 205.39L40.0478 207.886H44.0414C44.1353 207.886 44.2078 207.912 44.259 207.963C44.3187 208.014 44.3486 208.087 44.3486 208.181V208.706C44.3486 208.791 44.3187 208.863 44.259 208.923C44.2078 208.974 44.1353 209 44.0414 209H38.3966Z" fill="#007EA7"/>
<path d="M64.5328 209C64.4475 209 64.3749 208.974 64.3152 208.923C64.264 208.863 64.2384 208.791 64.2384 208.706V201.538L62.1136 203.176C62.0453 203.227 61.9728 203.249 61.896 203.24C61.8192 203.231 61.7552 203.193 61.704 203.125L61.3712 202.702C61.32 202.626 61.2987 202.549 61.3072 202.472C61.3243 202.395 61.3669 202.331 61.4352 202.28L64.2256 200.13C64.2853 200.087 64.3408 200.061 64.392 200.053C64.4432 200.044 64.4987 200.04 64.5584 200.04H65.2112C65.2965 200.04 65.3648 200.07 65.416 200.13C65.4672 200.181 65.4928 200.249 65.4928 200.334V208.706C65.4928 208.791 65.4672 208.863 65.416 208.923C65.3648 208.974 65.2965 209 65.2112 209H64.5328ZM70.2894 209.128C69.7518 209.128 69.2825 209.064 68.8814 208.936C68.4803 208.799 68.1433 208.62 67.8702 208.398C67.5971 208.177 67.3881 207.933 67.243 207.669C67.1065 207.404 67.0339 207.131 67.0254 206.85C67.0254 206.773 67.051 206.713 67.1022 206.67C67.1534 206.628 67.2174 206.606 67.2942 206.606H67.9214C67.9982 206.606 68.0665 206.623 68.1262 206.658C68.1859 206.692 68.2371 206.764 68.2798 206.875C68.3651 207.182 68.5102 207.421 68.715 207.592C68.9283 207.763 69.1715 207.882 69.4446 207.95C69.7262 208.01 70.0078 208.04 70.2894 208.04C70.8782 208.04 71.3561 207.899 71.723 207.618C72.0899 207.336 72.2734 206.922 72.2734 206.376C72.2734 205.821 72.107 205.425 71.7742 205.186C71.4414 204.947 70.9806 204.827 70.3918 204.827H69.1758C69.0905 204.827 69.0179 204.802 68.9582 204.75C68.907 204.699 68.8814 204.627 68.8814 204.533V204.187C68.8814 204.11 68.8942 204.046 68.9198 203.995C68.9539 203.935 68.9881 203.884 69.0222 203.842L71.5054 201.128H67.7294C67.6441 201.128 67.5715 201.102 67.5118 201.051C67.4606 201 67.435 200.927 67.435 200.834V200.347C67.435 200.253 67.4606 200.181 67.5118 200.13C67.5715 200.07 67.6441 200.04 67.7294 200.04H72.8366C72.9305 200.04 73.003 200.07 73.0542 200.13C73.1139 200.181 73.1438 200.253 73.1438 200.347V200.808C73.1438 200.868 73.1267 200.923 73.0926 200.974C73.067 201.017 73.0371 201.06 73.003 201.102L70.5326 203.854L70.7374 203.867C71.3006 203.884 71.7913 203.987 72.2094 204.174C72.6361 204.362 72.9646 204.644 73.195 205.019C73.4339 205.386 73.5534 205.851 73.5534 206.414C73.5534 206.986 73.4126 207.477 73.131 207.886C72.8494 208.287 72.4611 208.595 71.9662 208.808C71.4713 209.021 70.9123 209.128 70.2894 209.128Z" fill="#007EA7"/>
<path d="M94.5328 209C94.4475 209 94.3749 208.974 94.3152 208.923C94.264 208.863 94.2384 208.791 94.2384 208.706V201.538L92.1136 203.176C92.0453 203.227 91.9728 203.249 91.896 203.24C91.8192 203.231 91.7552 203.193 91.704 203.125L91.3712 202.702C91.32 202.626 91.2987 202.549 91.3072 202.472C91.3243 202.395 91.3669 202.331 91.4352 202.28L94.2256 200.13C94.2853 200.087 94.3408 200.061 94.392 200.053C94.4432 200.044 94.4987 200.04 94.5584 200.04H95.2112C95.2965 200.04 95.3648 200.07 95.416 200.13C95.4672 200.181 95.4928 200.249 95.4928 200.334V208.706C95.4928 208.791 95.4672 208.863 95.416 208.923C95.3648 208.974 95.2965 209 95.2112 209H94.5328ZM101.608 209C101.522 209 101.45 208.974 101.39 208.923C101.339 208.863 101.313 208.791 101.313 208.706V206.862H97.1662C97.0809 206.862 97.0083 206.837 96.9486 206.786C96.8974 206.726 96.8718 206.653 96.8718 206.568V206.056C96.8718 206.022 96.8803 205.971 96.8974 205.902C96.923 205.826 96.9614 205.749 97.0126 205.672L100.853 200.258C100.955 200.113 101.113 200.04 101.326 200.04H102.248C102.333 200.04 102.401 200.07 102.453 200.13C102.512 200.181 102.542 200.249 102.542 200.334V205.749H103.694C103.788 205.749 103.861 205.779 103.912 205.838C103.972 205.89 104.001 205.958 104.001 206.043V206.568C104.001 206.653 103.972 206.726 103.912 206.786C103.861 206.837 103.792 206.862 103.707 206.862H102.542V208.706C102.542 208.791 102.512 208.863 102.453 208.923C102.401 208.974 102.333 209 102.248 209H101.608ZM98.2414 205.774H101.326V201.384L98.2414 205.774Z" fill="#007EA7"/>
<path d="M124.533 209C124.447 209 124.375 208.974 124.315 208.923C124.264 208.863 124.238 208.791 124.238 208.706V201.538L122.114 203.176C122.045 203.227 121.973 203.249 121.896 203.24C121.819 203.231 121.755 203.193 121.704 203.125L121.371 202.702C121.32 202.626 121.299 202.549 121.307 202.472C121.324 202.395 121.367 202.331 121.435 202.28L124.226 200.13C124.285 200.087 124.341 200.061 124.392 200.053C124.443 200.044 124.499 200.04 124.558 200.04H125.211C125.297 200.04 125.365 200.07 125.416 200.13C125.467 200.181 125.493 200.249 125.493 200.334V208.706C125.493 208.791 125.467 208.863 125.416 208.923C125.365 208.974 125.297 209 125.211 209H124.533ZM130.213 209.128C129.538 209.128 128.967 209.013 128.497 208.782C128.037 208.543 127.682 208.236 127.435 207.861C127.196 207.485 127.068 207.089 127.051 206.67C127.042 206.594 127.064 206.534 127.115 206.491C127.166 206.449 127.23 206.427 127.307 206.427H127.998C128.075 206.427 128.143 206.444 128.203 206.478C128.263 206.513 128.31 206.585 128.344 206.696C128.429 207.012 128.566 207.272 128.753 207.477C128.95 207.673 129.172 207.818 129.419 207.912C129.675 207.997 129.94 208.04 130.213 208.04C130.58 208.04 130.912 207.967 131.211 207.822C131.518 207.669 131.761 207.447 131.941 207.157C132.12 206.858 132.209 206.5 132.209 206.082C132.209 205.698 132.12 205.369 131.941 205.096C131.77 204.814 131.531 204.601 131.224 204.456C130.925 204.302 130.588 204.226 130.213 204.226C129.931 204.226 129.701 204.26 129.521 204.328C129.342 204.396 129.189 204.477 129.061 204.571C128.941 204.665 128.83 204.746 128.728 204.814C128.634 204.883 128.527 204.917 128.408 204.917H127.742C127.665 204.917 127.597 204.891 127.537 204.84C127.478 204.78 127.452 204.712 127.461 204.635L127.87 200.36C127.879 200.258 127.909 200.181 127.96 200.13C128.02 200.07 128.096 200.04 128.19 200.04H132.657C132.743 200.04 132.811 200.07 132.862 200.13C132.922 200.181 132.952 200.249 132.952 200.334V200.834C132.952 200.927 132.922 201 132.862 201.051C132.811 201.102 132.743 201.128 132.657 201.128H128.971L128.728 203.65C128.847 203.573 129.039 203.483 129.304 203.381C129.568 203.27 129.931 203.214 130.392 203.214C130.81 203.214 131.202 203.278 131.569 203.406C131.945 203.534 132.278 203.722 132.568 203.97C132.858 204.217 133.084 204.52 133.246 204.878C133.408 205.228 133.489 205.634 133.489 206.094C133.489 206.743 133.344 207.293 133.054 207.746C132.773 208.198 132.384 208.543 131.889 208.782C131.403 209.013 130.844 209.128 130.213 209.128Z" fill="#007EA7"/>
<path d="M154.533 209C154.447 209 154.375 208.974 154.315 208.923C154.264 208.863 154.238 208.791 154.238 208.706V201.538L152.114 203.176C152.045 203.227 151.973 203.249 151.896 203.24C151.819 203.231 151.755 203.193 151.704 203.125L151.371 202.702C151.32 202.626 151.299 202.549 151.307 202.472C151.324 202.395 151.367 202.331 151.435 202.28L154.226 200.13C154.285 200.087 154.341 200.061 154.392 200.053C154.443 200.044 154.499 200.04 154.558 200.04H155.211C155.297 200.04 155.365 200.07 155.416 200.13C155.467 200.181 155.493 200.249 155.493 200.334V208.706C155.493 208.791 155.467 208.863 155.416 208.923C155.365 208.974 155.297 209 155.211 209H154.533ZM160.417 209.128C159.709 209.128 159.108 208.987 158.613 208.706C158.118 208.415 157.738 208.04 157.473 207.579C157.217 207.11 157.089 206.602 157.089 206.056C157.089 205.8 157.119 205.557 157.179 205.326C157.247 205.087 157.328 204.866 157.422 204.661C157.525 204.447 157.623 204.26 157.717 204.098C157.819 203.927 157.909 203.79 157.985 203.688L160.417 200.296C160.46 200.253 160.511 200.202 160.571 200.142C160.631 200.074 160.72 200.04 160.84 200.04H161.518C161.595 200.04 161.655 200.07 161.697 200.13C161.749 200.181 161.774 200.245 161.774 200.322C161.774 200.356 161.77 200.39 161.761 200.424C161.753 200.45 161.74 200.471 161.723 200.488L159.854 203.099C159.957 203.065 160.072 203.044 160.2 203.035C160.336 203.018 160.464 203.01 160.584 203.01C161.053 203.018 161.48 203.103 161.864 203.266C162.248 203.428 162.576 203.65 162.849 203.931C163.131 204.204 163.344 204.524 163.489 204.891C163.634 205.25 163.707 205.634 163.707 206.043C163.707 206.581 163.579 207.084 163.323 207.554C163.067 208.023 162.692 208.403 162.197 208.693C161.71 208.983 161.117 209.128 160.417 209.128ZM160.405 208.04C160.763 208.04 161.096 207.963 161.403 207.81C161.71 207.656 161.958 207.434 162.145 207.144C162.342 206.845 162.44 206.483 162.44 206.056C162.44 205.621 162.346 205.258 162.158 204.968C161.97 204.669 161.719 204.447 161.403 204.302C161.096 204.149 160.763 204.072 160.405 204.072C160.046 204.072 159.713 204.149 159.406 204.302C159.099 204.447 158.847 204.669 158.651 204.968C158.463 205.258 158.369 205.621 158.369 206.056C158.369 206.483 158.463 206.845 158.651 207.144C158.847 207.434 159.099 207.656 159.406 207.81C159.713 207.963 160.046 208.04 160.405 208.04Z" fill="#007EA7"/>
<path d="M184.533 209C184.447 209 184.375 208.974 184.315 208.923C184.264 208.863 184.238 208.791 184.238 208.706V201.538L182.114 203.176C182.045 203.227 181.973 203.249 181.896 203.24C181.819 203.231 181.755 203.193 181.704 203.125L181.371 202.702C181.32 202.626 181.299 202.549 181.307 202.472C181.324 202.395 181.367 202.331 181.435 202.28L184.226 200.13C184.285 200.087 184.341 200.061 184.392 200.053C184.443 200.044 184.499 200.04 184.558 200.04H185.211C185.297 200.04 185.365 200.07 185.416 200.13C185.467 200.181 185.493 200.249 185.493 200.334V208.706C185.493 208.791 185.467 208.863 185.416 208.923C185.365 208.974 185.297 209 185.211 209H184.533ZM188.382 209C188.305 209 188.241 208.974 188.19 208.923C188.148 208.863 188.126 208.795 188.126 208.718C188.126 208.693 188.135 208.654 188.152 208.603L191.339 201.154H187.141C187.055 201.154 186.983 201.128 186.923 201.077C186.872 201.017 186.846 200.945 186.846 200.859V200.347C186.846 200.253 186.872 200.181 186.923 200.13C186.983 200.07 187.055 200.04 187.141 200.04H192.389C192.482 200.04 192.555 200.07 192.606 200.13C192.666 200.181 192.696 200.253 192.696 200.347V200.821C192.696 200.932 192.687 201.021 192.67 201.09C192.653 201.158 192.628 201.235 192.593 201.32L189.432 208.68C189.406 208.748 189.364 208.821 189.304 208.898C189.253 208.966 189.176 209 189.073 209H188.382Z" fill="#007EA7"/>
<path d="M213.533 209C213.447 209 213.375 208.974 213.315 208.923C213.264 208.863 213.238 208.791 213.238 208.706V201.538L211.114 203.176C211.045 203.227 210.973 203.249 210.896 203.24C210.819 203.231 210.755 203.193 210.704 203.125L210.371 202.702C210.32 202.626 210.299 202.549 210.307 202.472C210.324 202.395 210.367 202.331 210.435 202.28L213.226 200.13C213.285 200.087 213.341 200.061 213.392 200.053C213.443 200.044 213.499 200.04 213.558 200.04H214.211C214.297 200.04 214.365 200.07 214.416 200.13C214.467 200.181 214.493 200.249 214.493 200.334V208.706C214.493 208.791 214.467 208.863 214.416 208.923C214.365 208.974 214.297 209 214.211 209H213.533ZM219.545 209.128C219.05 209.128 218.594 209.068 218.176 208.949C217.766 208.821 217.412 208.642 217.113 208.411C216.823 208.172 216.597 207.886 216.435 207.554C216.273 207.221 216.192 206.845 216.192 206.427C216.192 205.907 216.316 205.459 216.563 205.083C216.819 204.708 217.156 204.422 217.574 204.226C217.241 204.029 216.981 203.773 216.793 203.458C216.606 203.142 216.512 202.766 216.512 202.331C216.512 201.819 216.636 201.388 216.883 201.038C217.139 200.68 217.493 200.403 217.945 200.206C218.406 200.01 218.94 199.912 219.545 199.912C220.143 199.912 220.668 200.01 221.12 200.206C221.581 200.394 221.935 200.667 222.182 201.026C222.438 201.384 222.566 201.815 222.566 202.318C222.566 202.754 222.472 203.133 222.285 203.458C222.097 203.773 221.841 204.029 221.517 204.226C221.935 204.422 222.268 204.708 222.515 205.083C222.771 205.459 222.899 205.907 222.899 206.427C222.899 206.982 222.758 207.464 222.477 207.874C222.195 208.275 221.802 208.586 221.299 208.808C220.796 209.021 220.211 209.128 219.545 209.128ZM219.545 208.104C219.938 208.104 220.292 208.036 220.608 207.899C220.924 207.763 221.175 207.571 221.363 207.323C221.551 207.067 221.645 206.769 221.645 206.427C221.645 206.077 221.551 205.783 221.363 205.544C221.175 205.297 220.924 205.109 220.608 204.981C220.292 204.844 219.938 204.776 219.545 204.776C219.153 204.776 218.794 204.844 218.47 204.981C218.154 205.109 217.903 205.297 217.715 205.544C217.527 205.783 217.433 206.077 217.433 206.427C217.433 206.769 217.527 207.067 217.715 207.323C217.903 207.571 218.154 207.763 218.47 207.899C218.794 208.036 219.153 208.104 219.545 208.104ZM219.545 203.765C219.87 203.765 220.168 203.705 220.441 203.586C220.723 203.466 220.945 203.304 221.107 203.099C221.278 202.894 221.363 202.647 221.363 202.357C221.363 202.067 221.282 201.815 221.12 201.602C220.966 201.388 220.749 201.226 220.467 201.115C220.194 200.996 219.887 200.936 219.545 200.936C219.204 200.936 218.893 200.996 218.611 201.115C218.338 201.226 218.12 201.388 217.958 201.602C217.796 201.815 217.715 202.067 217.715 202.357C217.715 202.655 217.796 202.911 217.958 203.125C218.12 203.33 218.338 203.487 218.611 203.598C218.893 203.709 219.204 203.765 219.545 203.765Z" fill="#007EA7"/>
<path d="M243.533 209C243.447 209 243.375 208.974 243.315 208.923C243.264 208.863 243.238 208.791 243.238 208.706V201.538L241.114 203.176C241.045 203.227 240.973 203.249 240.896 203.24C240.819 203.231 240.755 203.193 240.704 203.125L240.371 202.702C240.32 202.626 240.299 202.549 240.307 202.472C240.324 202.395 240.367 202.331 240.435 202.28L243.226 200.13C243.285 200.087 243.341 200.061 243.392 200.053C243.443 200.044 243.499 200.04 243.558 200.04H244.211C244.297 200.04 244.365 200.07 244.416 200.13C244.467 200.181 244.493 200.249 244.493 200.334V208.706C244.493 208.791 244.467 208.863 244.416 208.923C244.365 208.974 244.297 209 244.211 209H243.533ZM247.945 209C247.869 209 247.805 208.974 247.753 208.923C247.711 208.863 247.689 208.795 247.689 208.718C247.689 208.676 247.694 208.642 247.702 208.616C247.719 208.59 247.732 208.569 247.741 208.552L249.699 205.826C249.486 205.877 249.255 205.902 249.008 205.902C248.53 205.894 248.103 205.809 247.728 205.646C247.352 205.484 247.032 205.267 246.768 204.994C246.503 204.712 246.303 204.396 246.166 204.046C246.03 203.697 245.961 203.33 245.961 202.946C245.961 202.57 246.025 202.203 246.153 201.845C246.29 201.486 246.49 201.162 246.755 200.872C247.028 200.582 247.365 200.351 247.766 200.181C248.167 200.002 248.641 199.912 249.187 199.912C249.725 199.912 250.194 199.997 250.595 200.168C251.005 200.33 251.346 200.556 251.619 200.846C251.901 201.128 252.105 201.448 252.233 201.806C252.37 202.165 252.438 202.536 252.438 202.92C252.438 203.27 252.387 203.59 252.285 203.88C252.182 204.17 252.058 204.43 251.913 204.661C251.777 204.891 251.64 205.105 251.504 205.301L249.046 208.744C249.012 208.787 248.965 208.842 248.905 208.91C248.846 208.97 248.756 209 248.637 209H247.945ZM249.187 204.866C249.545 204.866 249.874 204.789 250.173 204.635C250.48 204.473 250.723 204.251 250.902 203.97C251.081 203.679 251.171 203.334 251.171 202.933C251.171 202.532 251.081 202.19 250.902 201.909C250.723 201.619 250.48 201.397 250.173 201.243C249.874 201.081 249.545 201 249.187 201C248.837 201 248.513 201.081 248.214 201.243C247.916 201.397 247.677 201.619 247.497 201.909C247.318 202.19 247.229 202.532 247.229 202.933C247.229 203.334 247.318 203.679 247.497 203.97C247.677 204.251 247.916 204.473 248.214 204.635C248.513 204.789 248.837 204.866 249.187 204.866Z" fill="#007EA7"/>
<path d="M270.922 209C270.836 209 270.764 208.974 270.704 208.923C270.653 208.863 270.627 208.791 270.627 208.706V208.296C270.627 208.219 270.649 208.134 270.691 208.04C270.734 207.946 270.819 207.844 270.947 207.733L273.661 205.019C274.096 204.652 274.437 204.341 274.685 204.085C274.941 203.82 275.12 203.569 275.222 203.33C275.333 203.091 275.389 202.843 275.389 202.587C275.389 202.101 275.252 201.717 274.979 201.435C274.706 201.145 274.301 201 273.763 201C273.422 201 273.127 201.073 272.88 201.218C272.633 201.354 272.436 201.546 272.291 201.794C272.155 202.033 272.065 202.306 272.022 202.613C272.005 202.724 271.958 202.801 271.882 202.843C271.813 202.886 271.749 202.907 271.69 202.907H271.024C270.947 202.907 270.883 202.886 270.832 202.843C270.781 202.792 270.755 202.732 270.755 202.664C270.764 202.34 270.832 202.015 270.96 201.691C271.088 201.358 271.276 201.06 271.523 200.795C271.779 200.531 272.091 200.317 272.458 200.155C272.833 199.985 273.268 199.899 273.763 199.899C274.437 199.899 274.988 200.023 275.414 200.27C275.85 200.509 276.17 200.829 276.374 201.23C276.579 201.631 276.682 202.071 276.682 202.549C276.682 202.924 276.618 203.27 276.49 203.586C276.362 203.893 276.174 204.196 275.926 204.494C275.687 204.785 275.389 205.083 275.03 205.39L272.573 207.886H276.566C276.66 207.886 276.733 207.912 276.784 207.963C276.844 208.014 276.874 208.087 276.874 208.181V208.706C276.874 208.791 276.844 208.863 276.784 208.923C276.733 208.974 276.66 209 276.566 209H270.922ZM281.57 209.128C280.981 209.128 280.482 209.038 280.073 208.859C279.671 208.671 279.343 208.415 279.087 208.091C278.831 207.767 278.643 207.396 278.524 206.978C278.413 206.559 278.349 206.116 278.332 205.646C278.323 205.416 278.315 205.173 278.306 204.917C278.306 204.661 278.306 204.405 278.306 204.149C278.315 203.884 278.323 203.633 278.332 203.394C278.34 202.924 278.404 202.481 278.524 202.062C278.652 201.636 278.839 201.265 279.087 200.949C279.343 200.625 279.676 200.373 280.085 200.194C280.495 200.006 280.99 199.912 281.57 199.912C282.159 199.912 282.654 200.006 283.055 200.194C283.465 200.373 283.797 200.625 284.053 200.949C284.309 201.265 284.497 201.636 284.617 202.062C284.745 202.481 284.813 202.924 284.821 203.394C284.83 203.633 284.834 203.884 284.834 204.149C284.843 204.405 284.843 204.661 284.834 204.917C284.834 205.173 284.83 205.416 284.821 205.646C284.813 206.116 284.745 206.559 284.617 206.978C284.497 207.396 284.309 207.767 284.053 208.091C283.806 208.415 283.477 208.671 283.068 208.859C282.667 209.038 282.167 209.128 281.57 209.128ZM281.57 208.04C282.236 208.04 282.726 207.822 283.042 207.387C283.366 206.943 283.533 206.342 283.541 205.582C283.558 205.335 283.567 205.096 283.567 204.866C283.567 204.627 283.567 204.392 283.567 204.162C283.567 203.923 283.558 203.688 283.541 203.458C283.533 202.715 283.366 202.122 283.042 201.678C282.726 201.226 282.236 201 281.57 201C280.913 201 280.422 201.226 280.098 201.678C279.782 202.122 279.616 202.715 279.599 203.458C279.599 203.688 279.595 203.923 279.586 204.162C279.586 204.392 279.586 204.627 279.586 204.866C279.595 205.096 279.599 205.335 279.599 205.582C279.616 206.342 279.787 206.943 280.111 207.387C280.435 207.822 280.922 208.04 281.57 208.04Z" fill="#007EA7"/>
<path d="M302.922 209C302.836 209 302.764 208.974 302.704 208.923C302.653 208.863 302.627 208.791 302.627 208.706V208.296C302.627 208.219 302.649 208.134 302.691 208.04C302.734 207.946 302.819 207.844 302.947 207.733L305.661 205.019C306.096 204.652 306.437 204.341 306.685 204.085C306.941 203.82 307.12 203.569 307.222 203.33C307.333 203.091 307.389 202.843 307.389 202.587C307.389 202.101 307.252 201.717 306.979 201.435C306.706 201.145 306.301 201 305.763 201C305.422 201 305.127 201.073 304.88 201.218C304.633 201.354 304.436 201.546 304.291 201.794C304.155 202.033 304.065 202.306 304.022 202.613C304.005 202.724 303.958 202.801 303.882 202.843C303.813 202.886 303.749 202.907 303.69 202.907H303.024C302.947 202.907 302.883 202.886 302.832 202.843C302.781 202.792 302.755 202.732 302.755 202.664C302.764 202.34 302.832 202.015 302.96 201.691C303.088 201.358 303.276 201.06 303.523 200.795C303.779 200.531 304.091 200.317 304.458 200.155C304.833 199.985 305.268 199.899 305.763 199.899C306.437 199.899 306.988 200.023 307.414 200.27C307.85 200.509 308.17 200.829 308.374 201.23C308.579 201.631 308.682 202.071 308.682 202.549C308.682 202.924 308.618 203.27 308.49 203.586C308.362 203.893 308.174 204.196 307.926 204.494C307.687 204.785 307.389 205.083 307.03 205.39L304.573 207.886H308.566C308.66 207.886 308.733 207.912 308.784 207.963C308.844 208.014 308.874 208.087 308.874 208.181V208.706C308.874 208.791 308.844 208.863 308.784 208.923C308.733 208.974 308.66 209 308.566 209H302.922ZM313.045 209C312.96 209 312.887 208.974 312.828 208.923C312.777 208.863 312.751 208.791 312.751 208.706V201.538L310.626 203.176C310.558 203.227 310.485 203.249 310.409 203.24C310.332 203.231 310.268 203.193 310.217 203.125L309.884 202.702C309.833 202.626 309.811 202.549 309.82 202.472C309.837 202.395 309.879 202.331 309.948 202.28L312.738 200.13C312.798 200.087 312.853 200.061 312.905 200.053C312.956 200.044 313.011 200.04 313.071 200.04H313.724C313.809 200.04 313.877 200.07 313.929 200.13C313.98 200.181 314.005 200.249 314.005 200.334V208.706C314.005 208.791 313.98 208.863 313.929 208.923C313.877 208.974 313.809 209 313.724 209H313.045Z" fill="#007EA7"/>
<path d="M331.922 209C331.836 209 331.764 208.974 331.704 208.923C331.653 208.863 331.627 208.791 331.627 208.706V208.296C331.627 208.219 331.649 208.134 331.691 208.04C331.734 207.946 331.819 207.844 331.947 207.733L334.661 205.019C335.096 204.652 335.437 204.341 335.685 204.085C335.941 203.82 336.12 203.569 336.222 203.33C336.333 203.091 336.389 202.843 336.389 202.587C336.389 202.101 336.252 201.717 335.979 201.435C335.706 201.145 335.301 201 334.763 201C334.422 201 334.127 201.073 333.88 201.218C333.633 201.354 333.436 201.546 333.291 201.794C333.155 202.033 333.065 202.306 333.022 202.613C333.005 202.724 332.958 202.801 332.882 202.843C332.813 202.886 332.749 202.907 332.69 202.907H332.024C331.947 202.907 331.883 202.886 331.832 202.843C331.781 202.792 331.755 202.732 331.755 202.664C331.764 202.34 331.832 202.015 331.96 201.691C332.088 201.358 332.276 201.06 332.523 200.795C332.779 200.531 333.091 200.317 333.458 200.155C333.833 199.985 334.268 199.899 334.763 199.899C335.437 199.899 335.988 200.023 336.414 200.27C336.85 200.509 337.17 200.829 337.374 201.23C337.579 201.631 337.682 202.071 337.682 202.549C337.682 202.924 337.618 203.27 337.49 203.586C337.362 203.893 337.174 204.196 336.926 204.494C336.687 204.785 336.389 205.083 336.03 205.39L333.573 207.886H337.566C337.66 207.886 337.733 207.912 337.784 207.963C337.844 208.014 337.874 208.087 337.874 208.181V208.706C337.874 208.791 337.844 208.863 337.784 208.923C337.733 208.974 337.66 209 337.566 209H331.922ZM339.434 209C339.349 209 339.276 208.974 339.217 208.923C339.165 208.863 339.14 208.791 339.14 208.706V208.296C339.14 208.219 339.161 208.134 339.204 208.04C339.246 207.946 339.332 207.844 339.46 207.733L342.173 205.019C342.609 204.652 342.95 204.341 343.197 204.085C343.453 203.82 343.633 203.569 343.735 203.33C343.846 203.091 343.901 202.843 343.901 202.587C343.901 202.101 343.765 201.717 343.492 201.435C343.219 201.145 342.813 201 342.276 201C341.934 201 341.64 201.073 341.393 201.218C341.145 201.354 340.949 201.546 340.804 201.794C340.667 202.033 340.578 202.306 340.535 202.613C340.518 202.724 340.471 202.801 340.394 202.843C340.326 202.886 340.262 202.907 340.202 202.907H339.537C339.46 202.907 339.396 202.886 339.345 202.843C339.293 202.792 339.268 202.732 339.268 202.664C339.276 202.34 339.345 202.015 339.473 201.691C339.601 201.358 339.788 201.06 340.036 200.795C340.292 200.531 340.603 200.317 340.97 200.155C341.346 199.985 341.781 199.899 342.276 199.899C342.95 199.899 343.5 200.023 343.927 200.27C344.362 200.509 344.682 200.829 344.887 201.23C345.092 201.631 345.194 202.071 345.194 202.549C345.194 202.924 345.13 203.27 345.002 203.586C344.874 203.893 344.686 204.196 344.439 204.494C344.2 204.785 343.901 205.083 343.543 205.39L341.085 207.886H345.079C345.173 207.886 345.245 207.912 345.297 207.963C345.356 208.014 345.386 208.087 345.386 208.181V208.706C345.386 208.791 345.356 208.863 345.297 208.923C345.245 208.974 345.173 209 345.079 209H339.434Z" fill="#007EA7"/>
</g>
<g opacity="0.5">
<path d="M20.54 41C20.4067 41 20.2933 40.9533 20.2 40.86C20.1067 40.7667 20.06 40.6533 20.06 40.52V27.5C20.06 27.3533 20.1067 27.2333 20.2 27.14C20.2933 27.0467 20.4067 27 20.54 27H25.9C26.94 27 27.8467 27.1667 28.62 27.5C29.3933 27.82 29.9933 28.3133 30.42 28.98C30.8467 29.6333 31.06 30.4533 31.06 31.44C31.06 32.44 30.8467 33.2667 30.42 33.92C29.9933 34.56 29.3933 35.04 28.62 35.36C27.8467 35.68 26.94 35.84 25.9 35.84H22.92V40.52C22.92 40.6533 22.8733 40.7667 22.78 40.86C22.7 40.9533 22.5867 41 22.44 41H20.54ZM22.88 33.62H25.8C26.5733 33.62 27.1667 33.44 27.58 33.08C27.9933 32.7067 28.2 32.16 28.2 31.44C28.2 30.7733 28.0067 30.24 27.62 29.84C27.2333 29.4267 26.6267 29.22 25.8 29.22H22.88V33.62ZM33.7236 41C33.5903 41 33.4769 40.9533 33.3836 40.86C33.2903 40.7667 33.2436 40.6533 33.2436 40.52V27.5C33.2436 27.3533 33.2903 27.2333 33.3836 27.14C33.4769 27.0467 33.5903 27 33.7236 27H38.9036C40.5169 27 41.7903 27.3733 42.7236 28.12C43.6569 28.8667 44.1236 29.9533 44.1236 31.38C44.1236 32.3667 43.8769 33.1867 43.3836 33.84C42.9036 34.4933 42.2569 34.9667 41.4436 35.26L44.3636 40.36C44.4036 40.44 44.4236 40.5133 44.4236 40.58C44.4236 40.7 44.3769 40.8 44.2836 40.88C44.2036 40.96 44.1103 41 44.0036 41H42.1836C41.9569 41 41.7836 40.94 41.6636 40.82C41.5436 40.7 41.4503 40.58 41.3836 40.46L38.8036 35.72H36.0236V40.52C36.0236 40.6533 35.9769 40.7667 35.8836 40.86C35.8036 40.9533 35.6903 41 35.5436 41H33.7236ZM36.0236 33.46H38.8436C39.6569 33.46 40.2636 33.28 40.6636 32.92C41.0636 32.5467 41.2636 32.0267 41.2636 31.36C41.2636 30.6933 41.0636 30.1733 40.6636 29.8C40.2769 29.4133 39.6703 29.22 38.8436 29.22H36.0236V33.46Z" fill="#007EA7"/>
</g>
</g>
</g>
<defs>
<filter id="filter0_d_950_11414" x="-5" y="0" width="370" height="235" filterUnits="userSpaceOnUse" color-interpolation-filters="sRGB">
<feFlood flood-opacity="0" result="BackgroundImageFix"/>
<feColorMatrix in="SourceAlpha" type="matrix" values="0 0 0 0 0 0 0 0 0 0 0 0 0 0 0 0 0 0 127 0" result="hardAlpha"/>
<feOffset dy="4"/>
<feGaussianBlur stdDeviation="8"/>
<feComposite in2="hardAlpha" operator="out"/>
<feColorMatrix type="matrix" values="0 0 0 0 0 0 0 0 0 0.196078 0 0 0 0 0.286275 0 0 0 0.25 0"/>
<feBlend mode="normal" in2="BackgroundImageFix" result="effect1_dropShadow_950_11414"/>
<feBlend mode="normal" in="SourceGraphic" in2="effect1_dropShadow_950_11414" result="shape"/>
</filter>
<clipPath id="clip0_950_11414">
<rect x="11" y="12" width="338" height="203" rx="8" fill="white"/>
</clipPath>
</defs>
</svg>
