<svg width="436" height="235" viewBox="0 0 436 235" fill="none" xmlns="http://www.w3.org/2000/svg">
<g filter="url(#filter0_d_908_4185)">
<rect x="16" y="12" width="404" height="203" rx="8" fill="#00151F"/>
<path opacity="0.1" d="M42 187L49 173.5L64.5 167L74 149.5L83 126.5L89.5 136L97 130L106 137.5L119.5 142L129 151L146 172.5L177 182.5L195 170L212 155C215.333 157.667 222.2 163.1 223 163.5C223.8 163.9 233 161.333 237.5 160L242.5 155L259 158.5L278 167L301.5 155L312 144.5L319 121.5H341C342.667 125.333 346.4 133.9 348 137.5C349.6 141.1 363 153 369.5 158.5L378 172.5L386 163.5L399.5 158.5C401.167 162.833 405.1 171.7 407.5 172.5C409.9 173.3 412.833 169.167 414 167" stroke="#CCDBDC" stroke-width="4" stroke-linecap="round" stroke-linejoin="round"/>
<path d="M42 188L50 181.5L58.5 188L65.5 178.5L80.5 168.5H89.5L98.5 161.5L116.5 152.5L130.5 161.5L137.5 152.5L149.5 147.5L162.5 141L171 132L174.5 113L197.5 108.5C199 105.167 202.3 98.2 203.5 97C204.7 95.8 218 84.5 224.5 79H237L254.5 69.5L269.5 83.5V101L284.5 108.5L308.5 91.5L329.5 97L343.5 86L357.5 83.5L363.5 101L377 103.5C380.167 100.333 386.7 93.5 387.5 91.5C388.3 89.5 391.833 76 393.5 69.5L402.5 65.5L406.5 62L409 51" stroke="#27AE60" stroke-width="4" stroke-linecap="round" stroke-linejoin="round"/>
<g opacity="0.5">
<path d="M22.4216 67C22.3363 67 22.2637 66.9744 22.204 66.9232C22.1528 66.8635 22.1272 66.7909 22.1272 66.7056V66.296C22.1272 66.2192 22.1485 66.1339 22.1912 66.04C22.2339 65.9461 22.3192 65.8437 22.4472 65.7328L25.1608 63.0192C25.596 62.6523 25.9373 62.3408 26.1848 62.0848C26.4408 61.8203 26.62 61.5685 26.7224 61.3296C26.8333 61.0907 26.8888 60.8432 26.8888 60.5872C26.8888 60.1008 26.7523 59.7168 26.4792 59.4352C26.2061 59.1451 25.8008 59 25.2632 59C24.9219 59 24.6275 59.0725 24.38 59.2176C24.1325 59.3541 23.9363 59.5461 23.7912 59.7936C23.6547 60.0325 23.5651 60.3056 23.5224 60.6128C23.5053 60.7237 23.4584 60.8005 23.3816 60.8432C23.3133 60.8859 23.2493 60.9072 23.1896 60.9072H22.524C22.4472 60.9072 22.3832 60.8859 22.332 60.8432C22.2808 60.792 22.2552 60.7323 22.2552 60.664C22.2637 60.3397 22.332 60.0155 22.46 59.6912C22.588 59.3584 22.7757 59.0597 23.0232 58.7952C23.2792 58.5307 23.5907 58.3173 23.9576 58.1552C24.3331 57.9845 24.7683 57.8992 25.2632 57.8992C25.9373 57.8992 26.4877 58.0229 26.9144 58.2704C27.3496 58.5093 27.6696 58.8293 27.8744 59.2304C28.0792 59.6315 28.1816 60.0709 28.1816 60.5488C28.1816 60.9243 28.1176 61.2699 27.9896 61.5856C27.8616 61.8928 27.6739 62.1957 27.4264 62.4944C27.1875 62.7845 26.8888 63.0832 26.5304 63.3904L24.0728 65.8864H28.0664C28.1603 65.8864 28.2328 65.912 28.284 65.9632C28.3437 66.0144 28.3736 66.0869 28.3736 66.1808V66.7056C28.3736 66.7909 28.3437 66.8635 28.284 66.9232C28.2328 66.9744 28.1603 67 28.0664 67H22.4216ZM33.0701 67.128C32.4813 67.128 31.9821 67.0384 31.5725 66.8592C31.1714 66.6715 30.8429 66.4155 30.5869 66.0912C30.3309 65.7669 30.1432 65.3957 30.0237 64.9776C29.9128 64.5595 29.8488 64.1157 29.8317 63.6464C29.8232 63.416 29.8146 63.1728 29.8061 62.9168C29.8061 62.6608 29.8061 62.4048 29.8061 62.1488C29.8146 61.8843 29.8232 61.6325 29.8317 61.3936C29.8402 60.9243 29.9042 60.4805 30.0237 60.0624C30.1517 59.6357 30.3394 59.2645 30.5869 58.9488C30.8429 58.6245 31.1757 58.3728 31.5853 58.1936C31.9949 58.0059 32.4898 57.912 33.0701 57.912C33.6589 57.912 34.1538 58.0059 34.5549 58.1936C34.9645 58.3728 35.2973 58.6245 35.5533 58.9488C35.8093 59.2645 35.997 59.6357 36.1165 60.0624C36.2445 60.4805 36.3128 60.9243 36.3213 61.3936C36.3298 61.6325 36.3341 61.8843 36.3341 62.1488C36.3426 62.4048 36.3426 62.6608 36.3341 62.9168C36.3341 63.1728 36.3298 63.416 36.3213 63.6464C36.3128 64.1157 36.2445 64.5595 36.1165 64.9776C35.997 65.3957 35.8093 65.7669 35.5533 66.0912C35.3058 66.4155 34.9773 66.6715 34.5677 66.8592C34.1666 67.0384 33.6674 67.128 33.0701 67.128ZM33.0701 66.04C33.7357 66.04 34.2264 65.8224 34.5421 65.3872C34.8664 64.9435 35.0328 64.3419 35.0413 63.5824C35.0584 63.3349 35.0669 63.096 35.0669 62.8656C35.0669 62.6267 35.0669 62.392 35.0669 62.1616C35.0669 61.9227 35.0584 61.688 35.0413 61.4576C35.0328 60.7152 34.8664 60.1221 34.5421 59.6784C34.2264 59.2261 33.7357 59 33.0701 59C32.413 59 31.9224 59.2261 31.5981 59.6784C31.2824 60.1221 31.116 60.7152 31.0989 61.4576C31.0989 61.688 31.0946 61.9227 31.0861 62.1616C31.0861 62.392 31.0861 62.6267 31.0861 62.8656C31.0946 63.096 31.0989 63.3349 31.0989 63.5824C31.116 64.3419 31.2866 64.9435 31.6109 65.3872C31.9352 65.8224 32.4216 66.04 33.0701 66.04Z" fill="#007EA7"/>
<path d="M27.0328 98C26.9475 98 26.8749 97.9744 26.8152 97.9232C26.764 97.8635 26.7384 97.7909 26.7384 97.7056V90.5376L24.6136 92.176C24.5453 92.2272 24.4728 92.2485 24.396 92.24C24.3192 92.2315 24.2552 92.1931 24.204 92.1248L23.8712 91.7024C23.82 91.6256 23.7987 91.5488 23.8072 91.472C23.8243 91.3952 23.8669 91.3312 23.9352 91.28L26.7256 89.1296C26.7853 89.0869 26.8408 89.0613 26.892 89.0528C26.9432 89.0443 26.9987 89.04 27.0584 89.04H27.7112C27.7965 89.04 27.8648 89.0699 27.916 89.1296C27.9672 89.1808 27.9928 89.2491 27.9928 89.3344V97.7056C27.9928 97.7909 27.9672 97.8635 27.916 97.9232C27.8648 97.9744 27.7965 98 27.7112 98H27.0328ZM32.7126 98.128C32.0385 98.128 31.4667 98.0128 30.9974 97.7824C30.5366 97.5435 30.1825 97.2363 29.935 96.8608C29.6961 96.4853 29.5681 96.0885 29.551 95.6704C29.5425 95.5936 29.5638 95.5339 29.615 95.4912C29.6662 95.4485 29.7302 95.4272 29.807 95.4272H30.4982C30.575 95.4272 30.6433 95.4443 30.703 95.4784C30.7627 95.5125 30.8097 95.5851 30.8438 95.696C30.9291 96.0117 31.0657 96.272 31.2534 96.4768C31.4497 96.6731 31.6715 96.8181 31.919 96.912C32.175 96.9973 32.4395 97.04 32.7126 97.04C33.0795 97.04 33.4123 96.9675 33.711 96.8224C34.0182 96.6688 34.2614 96.4469 34.4406 96.1568C34.6198 95.8581 34.7094 95.4997 34.7094 95.0816C34.7094 94.6976 34.6198 94.3691 34.4406 94.096C34.2699 93.8144 34.031 93.6011 33.7238 93.456C33.4251 93.3024 33.0881 93.2256 32.7126 93.2256C32.431 93.2256 32.2006 93.2597 32.0214 93.328C31.8422 93.3963 31.6886 93.4773 31.5606 93.5712C31.4411 93.6651 31.3302 93.7461 31.2278 93.8144C31.1339 93.8827 31.0273 93.9168 30.9078 93.9168H30.2422C30.1654 93.9168 30.0971 93.8912 30.0374 93.84C29.9777 93.7803 29.9521 93.712 29.9606 93.6352L30.3702 89.36C30.3787 89.2576 30.4086 89.1808 30.4598 89.1296C30.5195 89.0699 30.5963 89.04 30.6902 89.04H35.1574C35.2427 89.04 35.311 89.0699 35.3622 89.1296C35.4219 89.1808 35.4518 89.2491 35.4518 89.3344V89.8336C35.4518 89.9275 35.4219 90 35.3622 90.0512C35.311 90.1024 35.2427 90.128 35.1574 90.128H31.471L31.2278 92.6496C31.3473 92.5728 31.5393 92.4832 31.8038 92.3808C32.0683 92.2699 32.431 92.2144 32.8918 92.2144C33.3099 92.2144 33.7025 92.2784 34.0694 92.4064C34.4449 92.5344 34.7777 92.7221 35.0678 92.9696C35.3579 93.2171 35.5841 93.52 35.7462 93.8784C35.9083 94.2283 35.9894 94.6336 35.9894 95.0944C35.9894 95.7429 35.8443 96.2933 35.5542 96.7456C35.2726 97.1979 34.8843 97.5435 34.3894 97.7824C33.903 98.0128 33.3441 98.128 32.7126 98.128Z" fill="#007EA7"/>
<path d="M27.0328 129C26.9475 129 26.8749 128.974 26.8152 128.923C26.764 128.863 26.7384 128.791 26.7384 128.706V121.538L24.6136 123.176C24.5453 123.227 24.4728 123.249 24.396 123.24C24.3192 123.231 24.2552 123.193 24.204 123.125L23.8712 122.702C23.82 122.626 23.7987 122.549 23.8072 122.472C23.8243 122.395 23.8669 122.331 23.9352 122.28L26.7256 120.13C26.7853 120.087 26.8408 120.061 26.892 120.053C26.9432 120.044 26.9987 120.04 27.0584 120.04H27.7112C27.7965 120.04 27.8648 120.07 27.916 120.13C27.9672 120.181 27.9928 120.249 27.9928 120.334V128.706C27.9928 128.791 27.9672 128.863 27.916 128.923C27.8648 128.974 27.7965 129 27.7112 129H27.0328ZM33.0326 129.128C32.4438 129.128 31.9446 129.038 31.535 128.859C31.1339 128.671 30.8054 128.415 30.5494 128.091C30.2934 127.767 30.1057 127.396 29.9862 126.978C29.8753 126.559 29.8113 126.116 29.7942 125.646C29.7857 125.416 29.7771 125.173 29.7686 124.917C29.7686 124.661 29.7686 124.405 29.7686 124.149C29.7771 123.884 29.7857 123.633 29.7942 123.394C29.8027 122.924 29.8667 122.481 29.9862 122.062C30.1142 121.636 30.3019 121.265 30.5494 120.949C30.8054 120.625 31.1382 120.373 31.5478 120.194C31.9574 120.006 32.4523 119.912 33.0326 119.912C33.6214 119.912 34.1163 120.006 34.5174 120.194C34.927 120.373 35.2598 120.625 35.5158 120.949C35.7718 121.265 35.9595 121.636 36.079 122.062C36.207 122.481 36.2753 122.924 36.2838 123.394C36.2923 123.633 36.2966 123.884 36.2966 124.149C36.3051 124.405 36.3051 124.661 36.2966 124.917C36.2966 125.173 36.2923 125.416 36.2838 125.646C36.2753 126.116 36.207 126.559 36.079 126.978C35.9595 127.396 35.7718 127.767 35.5158 128.091C35.2683 128.415 34.9398 128.671 34.5302 128.859C34.1291 129.038 33.6299 129.128 33.0326 129.128ZM33.0326 128.04C33.6982 128.04 34.1889 127.822 34.5046 127.387C34.8289 126.943 34.9953 126.342 35.0038 125.582C35.0209 125.335 35.0294 125.096 35.0294 124.866C35.0294 124.627 35.0294 124.392 35.0294 124.162C35.0294 123.923 35.0209 123.688 35.0038 123.458C34.9953 122.715 34.8289 122.122 34.5046 121.678C34.1889 121.226 33.6982 121 33.0326 121C32.3755 121 31.8849 121.226 31.5606 121.678C31.2449 122.122 31.0785 122.715 31.0614 123.458C31.0614 123.688 31.0571 123.923 31.0486 124.162C31.0486 124.392 31.0486 124.627 31.0486 124.866C31.0571 125.096 31.0614 125.335 31.0614 125.582C31.0785 126.342 31.2491 126.943 31.5734 127.387C31.8977 127.822 32.3841 128.04 33.0326 128.04Z" fill="#007EA7"/>
<path d="M33.2376 160.128C32.5635 160.128 31.9917 160.013 31.5224 159.782C31.0616 159.543 30.7075 159.236 30.46 158.861C30.2211 158.485 30.0931 158.089 30.076 157.67C30.0675 157.594 30.0888 157.534 30.14 157.491C30.1912 157.449 30.2552 157.427 30.332 157.427H31.0232C31.1 157.427 31.1683 157.444 31.228 157.478C31.2877 157.513 31.3347 157.585 31.3688 157.696C31.4541 158.012 31.5907 158.272 31.7784 158.477C31.9747 158.673 32.1965 158.818 32.444 158.912C32.7 158.997 32.9645 159.04 33.2376 159.04C33.6045 159.04 33.9373 158.967 34.236 158.822C34.5432 158.669 34.7864 158.447 34.9656 158.157C35.1448 157.858 35.2344 157.5 35.2344 157.082C35.2344 156.698 35.1448 156.369 34.9656 156.096C34.7949 155.814 34.556 155.601 34.2488 155.456C33.9501 155.302 33.6131 155.226 33.2376 155.226C32.956 155.226 32.7256 155.26 32.5464 155.328C32.3672 155.396 32.2136 155.477 32.0856 155.571C31.9661 155.665 31.8552 155.746 31.7528 155.814C31.6589 155.883 31.5523 155.917 31.4328 155.917H30.7672C30.6904 155.917 30.6221 155.891 30.5624 155.84C30.5027 155.78 30.4771 155.712 30.4856 155.635L30.8952 151.36C30.9037 151.258 30.9336 151.181 30.9848 151.13C31.0445 151.07 31.1213 151.04 31.2152 151.04H35.6824C35.7677 151.04 35.836 151.07 35.8872 151.13C35.9469 151.181 35.9768 151.249 35.9768 151.334V151.834C35.9768 151.927 35.9469 152 35.8872 152.051C35.836 152.102 35.7677 152.128 35.6824 152.128H31.996L31.7528 154.65C31.8723 154.573 32.0643 154.483 32.3288 154.381C32.5933 154.27 32.956 154.214 33.4168 154.214C33.8349 154.214 34.2275 154.278 34.5944 154.406C34.9699 154.534 35.3027 154.722 35.5928 154.97C35.8829 155.217 36.1091 155.52 36.2712 155.878C36.4333 156.228 36.5144 156.634 36.5144 157.094C36.5144 157.743 36.3693 158.293 36.0792 158.746C35.7976 159.198 35.4093 159.543 34.9144 159.782C34.428 160.013 33.8691 160.128 33.2376 160.128Z" fill="#007EA7"/>
<path d="M32.5576 191.128C31.9688 191.128 31.4696 191.038 31.06 190.859C30.6589 190.671 30.3304 190.415 30.0744 190.091C29.8184 189.767 29.6307 189.396 29.5112 188.978C29.4003 188.559 29.3363 188.116 29.3192 187.646C29.3107 187.416 29.3021 187.173 29.2936 186.917C29.2936 186.661 29.2936 186.405 29.2936 186.149C29.3021 185.884 29.3107 185.633 29.3192 185.394C29.3277 184.924 29.3917 184.481 29.5112 184.062C29.6392 183.636 29.8269 183.265 30.0744 182.949C30.3304 182.625 30.6632 182.373 31.0728 182.194C31.4824 182.006 31.9773 181.912 32.5576 181.912C33.1464 181.912 33.6413 182.006 34.0424 182.194C34.452 182.373 34.7848 182.625 35.0408 182.949C35.2968 183.265 35.4845 183.636 35.604 184.062C35.732 184.481 35.8003 184.924 35.8088 185.394C35.8173 185.633 35.8216 185.884 35.8216 186.149C35.8301 186.405 35.8301 186.661 35.8216 186.917C35.8216 187.173 35.8173 187.416 35.8088 187.646C35.8003 188.116 35.732 188.559 35.604 188.978C35.4845 189.396 35.2968 189.767 35.0408 190.091C34.7933 190.415 34.4648 190.671 34.0552 190.859C33.6541 191.038 33.1549 191.128 32.5576 191.128ZM32.5576 190.04C33.2232 190.04 33.7139 189.822 34.0296 189.387C34.3539 188.943 34.5203 188.342 34.5288 187.582C34.5459 187.335 34.5544 187.096 34.5544 186.866C34.5544 186.627 34.5544 186.392 34.5544 186.162C34.5544 185.923 34.5459 185.688 34.5288 185.458C34.5203 184.715 34.3539 184.122 34.0296 183.678C33.7139 183.226 33.2232 183 32.5576 183C31.9005 183 31.4099 183.226 31.0856 183.678C30.7699 184.122 30.6035 184.715 30.5864 185.458C30.5864 185.688 30.5821 185.923 30.5736 186.162C30.5736 186.392 30.5736 186.627 30.5736 186.866C30.5821 187.096 30.5864 187.335 30.5864 187.582C30.6035 188.342 30.7741 188.943 31.0984 189.387C31.4227 189.822 31.9091 190.04 32.5576 190.04Z" fill="#007EA7"/>
</g>
<g opacity="0.34">
<path d="M40.5328 209C40.4475 209 40.3749 208.974 40.3152 208.923C40.264 208.863 40.2384 208.791 40.2384 208.706V201.538L38.1136 203.176C38.0453 203.227 37.9728 203.249 37.896 203.24C37.8192 203.231 37.7552 203.193 37.704 203.125L37.3712 202.702C37.32 202.626 37.2987 202.549 37.3072 202.472C37.3243 202.395 37.3669 202.331 37.4352 202.28L40.2256 200.13C40.2853 200.087 40.3408 200.061 40.392 200.053C40.4432 200.044 40.4987 200.04 40.5584 200.04H41.2112C41.2965 200.04 41.3648 200.07 41.416 200.13C41.4672 200.181 41.4928 200.249 41.4928 200.334V208.706C41.4928 208.791 41.4672 208.863 41.416 208.923C41.3648 208.974 41.2965 209 41.2112 209H40.5328ZM43.3966 209C43.3113 209 43.2387 208.974 43.179 208.923C43.1278 208.863 43.1022 208.791 43.1022 208.706V208.296C43.1022 208.219 43.1235 208.134 43.1662 208.04C43.2089 207.946 43.2942 207.844 43.4222 207.733L46.1358 205.019C46.571 204.652 46.9123 204.341 47.1598 204.085C47.4158 203.82 47.595 203.569 47.6974 203.33C47.8083 203.091 47.8638 202.843 47.8638 202.587C47.8638 202.101 47.7273 201.717 47.4542 201.435C47.1811 201.145 46.7758 201 46.2382 201C45.8969 201 45.6025 201.073 45.355 201.218C45.1075 201.354 44.9113 201.546 44.7662 201.794C44.6297 202.033 44.5401 202.306 44.4974 202.613C44.4803 202.724 44.4334 202.801 44.3566 202.843C44.2883 202.886 44.2243 202.907 44.1646 202.907H43.499C43.4222 202.907 43.3582 202.886 43.307 202.843C43.2558 202.792 43.2302 202.732 43.2302 202.664C43.2387 202.34 43.307 202.015 43.435 201.691C43.563 201.358 43.7507 201.06 43.9982 200.795C44.2542 200.531 44.5657 200.317 44.9326 200.155C45.3081 199.985 45.7433 199.899 46.2382 199.899C46.9123 199.899 47.4627 200.023 47.8894 200.27C48.3246 200.509 48.6446 200.829 48.8494 201.23C49.0542 201.631 49.1566 202.071 49.1566 202.549C49.1566 202.924 49.0926 203.27 48.9646 203.586C48.8366 203.893 48.6489 204.196 48.4014 204.494C48.1625 204.785 47.8638 205.083 47.5054 205.39L45.0478 207.886H49.0414C49.1353 207.886 49.2078 207.912 49.259 207.963C49.3187 208.014 49.3486 208.087 49.3486 208.181V208.706C49.3486 208.791 49.3187 208.863 49.259 208.923C49.2078 208.974 49.1353 209 49.0414 209H43.3966Z" fill="#007EA7"/>
<path d="M69.5328 209C69.4475 209 69.3749 208.974 69.3152 208.923C69.264 208.863 69.2384 208.791 69.2384 208.706V201.538L67.1136 203.176C67.0453 203.227 66.9728 203.249 66.896 203.24C66.8192 203.231 66.7552 203.193 66.704 203.125L66.3712 202.702C66.32 202.626 66.2987 202.549 66.3072 202.472C66.3243 202.395 66.3669 202.331 66.4352 202.28L69.2256 200.13C69.2853 200.087 69.3408 200.061 69.392 200.053C69.4432 200.044 69.4987 200.04 69.5584 200.04H70.2112C70.2965 200.04 70.3648 200.07 70.416 200.13C70.4672 200.181 70.4928 200.249 70.4928 200.334V208.706C70.4928 208.791 70.4672 208.863 70.416 208.923C70.3648 208.974 70.2965 209 70.2112 209H69.5328ZM75.2894 209.128C74.7518 209.128 74.2825 209.064 73.8814 208.936C73.4803 208.799 73.1433 208.62 72.8702 208.398C72.5971 208.177 72.3881 207.933 72.243 207.669C72.1065 207.404 72.0339 207.131 72.0254 206.85C72.0254 206.773 72.051 206.713 72.1022 206.67C72.1534 206.628 72.2174 206.606 72.2942 206.606H72.9214C72.9982 206.606 73.0665 206.623 73.1262 206.658C73.1859 206.692 73.2371 206.764 73.2798 206.875C73.3651 207.182 73.5102 207.421 73.715 207.592C73.9283 207.763 74.1715 207.882 74.4446 207.95C74.7262 208.01 75.0078 208.04 75.2894 208.04C75.8782 208.04 76.3561 207.899 76.723 207.618C77.0899 207.336 77.2734 206.922 77.2734 206.376C77.2734 205.821 77.107 205.425 76.7742 205.186C76.4414 204.947 75.9806 204.827 75.3918 204.827H74.1758C74.0905 204.827 74.0179 204.802 73.9582 204.75C73.907 204.699 73.8814 204.627 73.8814 204.533V204.187C73.8814 204.11 73.8942 204.046 73.9198 203.995C73.9539 203.935 73.9881 203.884 74.0222 203.842L76.5054 201.128H72.7294C72.6441 201.128 72.5715 201.102 72.5118 201.051C72.4606 201 72.435 200.927 72.435 200.834V200.347C72.435 200.253 72.4606 200.181 72.5118 200.13C72.5715 200.07 72.6441 200.04 72.7294 200.04H77.8366C77.9305 200.04 78.003 200.07 78.0542 200.13C78.1139 200.181 78.1438 200.253 78.1438 200.347V200.808C78.1438 200.868 78.1267 200.923 78.0926 200.974C78.067 201.017 78.0371 201.06 78.003 201.102L75.5326 203.854L75.7374 203.867C76.3006 203.884 76.7913 203.987 77.2094 204.174C77.6361 204.362 77.9646 204.644 78.195 205.019C78.4339 205.386 78.5534 205.851 78.5534 206.414C78.5534 206.986 78.4126 207.477 78.131 207.886C77.8494 208.287 77.4611 208.595 76.9662 208.808C76.4713 209.021 75.9123 209.128 75.2894 209.128Z" fill="#007EA7"/>
<path d="M99.5328 209C99.4475 209 99.3749 208.974 99.3152 208.923C99.264 208.863 99.2384 208.791 99.2384 208.706V201.538L97.1136 203.176C97.0453 203.227 96.9728 203.249 96.896 203.24C96.8192 203.231 96.7552 203.193 96.704 203.125L96.3712 202.702C96.32 202.626 96.2987 202.549 96.3072 202.472C96.3243 202.395 96.3669 202.331 96.4352 202.28L99.2256 200.13C99.2853 200.087 99.3408 200.061 99.392 200.053C99.4432 200.044 99.4987 200.04 99.5584 200.04H100.211C100.297 200.04 100.365 200.07 100.416 200.13C100.467 200.181 100.493 200.249 100.493 200.334V208.706C100.493 208.791 100.467 208.863 100.416 208.923C100.365 208.974 100.297 209 100.211 209H99.5328ZM106.608 209C106.522 209 106.45 208.974 106.39 208.923C106.339 208.863 106.313 208.791 106.313 208.706V206.862H102.166C102.081 206.862 102.008 206.837 101.949 206.786C101.897 206.726 101.872 206.653 101.872 206.568V206.056C101.872 206.022 101.88 205.971 101.897 205.902C101.923 205.826 101.961 205.749 102.013 205.672L105.853 200.258C105.955 200.113 106.113 200.04 106.326 200.04H107.248C107.333 200.04 107.401 200.07 107.453 200.13C107.512 200.181 107.542 200.249 107.542 200.334V205.749H108.694C108.788 205.749 108.861 205.779 108.912 205.838C108.972 205.89 109.001 205.958 109.001 206.043V206.568C109.001 206.653 108.972 206.726 108.912 206.786C108.861 206.837 108.792 206.862 108.707 206.862H107.542V208.706C107.542 208.791 107.512 208.863 107.453 208.923C107.401 208.974 107.333 209 107.248 209H106.608ZM103.241 205.774H106.326V201.384L103.241 205.774Z" fill="#007EA7"/>
<path d="M129.533 209C129.447 209 129.375 208.974 129.315 208.923C129.264 208.863 129.238 208.791 129.238 208.706V201.538L127.114 203.176C127.045 203.227 126.973 203.249 126.896 203.24C126.819 203.231 126.755 203.193 126.704 203.125L126.371 202.702C126.32 202.626 126.299 202.549 126.307 202.472C126.324 202.395 126.367 202.331 126.435 202.28L129.226 200.13C129.285 200.087 129.341 200.061 129.392 200.053C129.443 200.044 129.499 200.04 129.558 200.04H130.211C130.297 200.04 130.365 200.07 130.416 200.13C130.467 200.181 130.493 200.249 130.493 200.334V208.706C130.493 208.791 130.467 208.863 130.416 208.923C130.365 208.974 130.297 209 130.211 209H129.533ZM135.213 209.128C134.538 209.128 133.967 209.013 133.497 208.782C133.037 208.543 132.682 208.236 132.435 207.861C132.196 207.485 132.068 207.089 132.051 206.67C132.042 206.594 132.064 206.534 132.115 206.491C132.166 206.449 132.23 206.427 132.307 206.427H132.998C133.075 206.427 133.143 206.444 133.203 206.478C133.263 206.513 133.31 206.585 133.344 206.696C133.429 207.012 133.566 207.272 133.753 207.477C133.95 207.673 134.172 207.818 134.419 207.912C134.675 207.997 134.94 208.04 135.213 208.04C135.58 208.04 135.912 207.967 136.211 207.822C136.518 207.669 136.761 207.447 136.941 207.157C137.12 206.858 137.209 206.5 137.209 206.082C137.209 205.698 137.12 205.369 136.941 205.096C136.77 204.814 136.531 204.601 136.224 204.456C135.925 204.302 135.588 204.226 135.213 204.226C134.931 204.226 134.701 204.26 134.521 204.328C134.342 204.396 134.189 204.477 134.061 204.571C133.941 204.665 133.83 204.746 133.728 204.814C133.634 204.883 133.527 204.917 133.408 204.917H132.742C132.665 204.917 132.597 204.891 132.537 204.84C132.478 204.78 132.452 204.712 132.461 204.635L132.87 200.36C132.879 200.258 132.909 200.181 132.96 200.13C133.02 200.07 133.096 200.04 133.19 200.04H137.657C137.743 200.04 137.811 200.07 137.862 200.13C137.922 200.181 137.952 200.249 137.952 200.334V200.834C137.952 200.927 137.922 201 137.862 201.051C137.811 201.102 137.743 201.128 137.657 201.128H133.971L133.728 203.65C133.847 203.573 134.039 203.483 134.304 203.381C134.568 203.27 134.931 203.214 135.392 203.214C135.81 203.214 136.202 203.278 136.569 203.406C136.945 203.534 137.278 203.722 137.568 203.97C137.858 204.217 138.084 204.52 138.246 204.878C138.408 205.228 138.489 205.634 138.489 206.094C138.489 206.743 138.344 207.293 138.054 207.746C137.773 208.198 137.384 208.543 136.889 208.782C136.403 209.013 135.844 209.128 135.213 209.128Z" fill="#007EA7"/>
<path d="M159.533 209C159.447 209 159.375 208.974 159.315 208.923C159.264 208.863 159.238 208.791 159.238 208.706V201.538L157.114 203.176C157.045 203.227 156.973 203.249 156.896 203.24C156.819 203.231 156.755 203.193 156.704 203.125L156.371 202.702C156.32 202.626 156.299 202.549 156.307 202.472C156.324 202.395 156.367 202.331 156.435 202.28L159.226 200.13C159.285 200.087 159.341 200.061 159.392 200.053C159.443 200.044 159.499 200.04 159.558 200.04H160.211C160.297 200.04 160.365 200.07 160.416 200.13C160.467 200.181 160.493 200.249 160.493 200.334V208.706C160.493 208.791 160.467 208.863 160.416 208.923C160.365 208.974 160.297 209 160.211 209H159.533ZM165.417 209.128C164.709 209.128 164.108 208.987 163.613 208.706C163.118 208.415 162.738 208.04 162.473 207.579C162.217 207.11 162.089 206.602 162.089 206.056C162.089 205.8 162.119 205.557 162.179 205.326C162.247 205.087 162.328 204.866 162.422 204.661C162.525 204.447 162.623 204.26 162.717 204.098C162.819 203.927 162.909 203.79 162.985 203.688L165.417 200.296C165.46 200.253 165.511 200.202 165.571 200.142C165.631 200.074 165.72 200.04 165.84 200.04H166.518C166.595 200.04 166.655 200.07 166.697 200.13C166.749 200.181 166.774 200.245 166.774 200.322C166.774 200.356 166.77 200.39 166.761 200.424C166.753 200.45 166.74 200.471 166.723 200.488L164.854 203.099C164.957 203.065 165.072 203.044 165.2 203.035C165.336 203.018 165.464 203.01 165.584 203.01C166.053 203.018 166.48 203.103 166.864 203.266C167.248 203.428 167.576 203.65 167.849 203.931C168.131 204.204 168.344 204.524 168.489 204.891C168.634 205.25 168.707 205.634 168.707 206.043C168.707 206.581 168.579 207.084 168.323 207.554C168.067 208.023 167.692 208.403 167.197 208.693C166.71 208.983 166.117 209.128 165.417 209.128ZM165.405 208.04C165.763 208.04 166.096 207.963 166.403 207.81C166.71 207.656 166.958 207.434 167.145 207.144C167.342 206.845 167.44 206.483 167.44 206.056C167.44 205.621 167.346 205.258 167.158 204.968C166.97 204.669 166.719 204.447 166.403 204.302C166.096 204.149 165.763 204.072 165.405 204.072C165.046 204.072 164.713 204.149 164.406 204.302C164.099 204.447 163.847 204.669 163.651 204.968C163.463 205.258 163.369 205.621 163.369 206.056C163.369 206.483 163.463 206.845 163.651 207.144C163.847 207.434 164.099 207.656 164.406 207.81C164.713 207.963 165.046 208.04 165.405 208.04Z" fill="#007EA7"/>
<path d="M189.533 209C189.447 209 189.375 208.974 189.315 208.923C189.264 208.863 189.238 208.791 189.238 208.706V201.538L187.114 203.176C187.045 203.227 186.973 203.249 186.896 203.24C186.819 203.231 186.755 203.193 186.704 203.125L186.371 202.702C186.32 202.626 186.299 202.549 186.307 202.472C186.324 202.395 186.367 202.331 186.435 202.28L189.226 200.13C189.285 200.087 189.341 200.061 189.392 200.053C189.443 200.044 189.499 200.04 189.558 200.04H190.211C190.297 200.04 190.365 200.07 190.416 200.13C190.467 200.181 190.493 200.249 190.493 200.334V208.706C190.493 208.791 190.467 208.863 190.416 208.923C190.365 208.974 190.297 209 190.211 209H189.533ZM193.382 209C193.305 209 193.241 208.974 193.19 208.923C193.148 208.863 193.126 208.795 193.126 208.718C193.126 208.693 193.135 208.654 193.152 208.603L196.339 201.154H192.141C192.055 201.154 191.983 201.128 191.923 201.077C191.872 201.017 191.846 200.945 191.846 200.859V200.347C191.846 200.253 191.872 200.181 191.923 200.13C191.983 200.07 192.055 200.04 192.141 200.04H197.389C197.482 200.04 197.555 200.07 197.606 200.13C197.666 200.181 197.696 200.253 197.696 200.347V200.821C197.696 200.932 197.687 201.021 197.67 201.09C197.653 201.158 197.628 201.235 197.593 201.32L194.432 208.68C194.406 208.748 194.364 208.821 194.304 208.898C194.253 208.966 194.176 209 194.073 209H193.382Z" fill="#007EA7"/>
<path d="M218.533 209C218.447 209 218.375 208.974 218.315 208.923C218.264 208.863 218.238 208.791 218.238 208.706V201.538L216.114 203.176C216.045 203.227 215.973 203.249 215.896 203.24C215.819 203.231 215.755 203.193 215.704 203.125L215.371 202.702C215.32 202.626 215.299 202.549 215.307 202.472C215.324 202.395 215.367 202.331 215.435 202.28L218.226 200.13C218.285 200.087 218.341 200.061 218.392 200.053C218.443 200.044 218.499 200.04 218.558 200.04H219.211C219.297 200.04 219.365 200.07 219.416 200.13C219.467 200.181 219.493 200.249 219.493 200.334V208.706C219.493 208.791 219.467 208.863 219.416 208.923C219.365 208.974 219.297 209 219.211 209H218.533ZM224.545 209.128C224.05 209.128 223.594 209.068 223.176 208.949C222.766 208.821 222.412 208.642 222.113 208.411C221.823 208.172 221.597 207.886 221.435 207.554C221.273 207.221 221.192 206.845 221.192 206.427C221.192 205.907 221.316 205.459 221.563 205.083C221.819 204.708 222.156 204.422 222.574 204.226C222.241 204.029 221.981 203.773 221.793 203.458C221.606 203.142 221.512 202.766 221.512 202.331C221.512 201.819 221.636 201.388 221.883 201.038C222.139 200.68 222.493 200.403 222.945 200.206C223.406 200.01 223.94 199.912 224.545 199.912C225.143 199.912 225.668 200.01 226.12 200.206C226.581 200.394 226.935 200.667 227.182 201.026C227.438 201.384 227.566 201.815 227.566 202.318C227.566 202.754 227.472 203.133 227.285 203.458C227.097 203.773 226.841 204.029 226.517 204.226C226.935 204.422 227.268 204.708 227.515 205.083C227.771 205.459 227.899 205.907 227.899 206.427C227.899 206.982 227.758 207.464 227.477 207.874C227.195 208.275 226.802 208.586 226.299 208.808C225.796 209.021 225.211 209.128 224.545 209.128ZM224.545 208.104C224.938 208.104 225.292 208.036 225.608 207.899C225.924 207.763 226.175 207.571 226.363 207.323C226.551 207.067 226.645 206.769 226.645 206.427C226.645 206.077 226.551 205.783 226.363 205.544C226.175 205.297 225.924 205.109 225.608 204.981C225.292 204.844 224.938 204.776 224.545 204.776C224.153 204.776 223.794 204.844 223.47 204.981C223.154 205.109 222.903 205.297 222.715 205.544C222.527 205.783 222.433 206.077 222.433 206.427C222.433 206.769 222.527 207.067 222.715 207.323C222.903 207.571 223.154 207.763 223.47 207.899C223.794 208.036 224.153 208.104 224.545 208.104ZM224.545 203.765C224.87 203.765 225.168 203.705 225.441 203.586C225.723 203.466 225.945 203.304 226.107 203.099C226.278 202.894 226.363 202.647 226.363 202.357C226.363 202.067 226.282 201.815 226.12 201.602C225.966 201.388 225.749 201.226 225.467 201.115C225.194 200.996 224.887 200.936 224.545 200.936C224.204 200.936 223.893 200.996 223.611 201.115C223.338 201.226 223.12 201.388 222.958 201.602C222.796 201.815 222.715 202.067 222.715 202.357C222.715 202.655 222.796 202.911 222.958 203.125C223.12 203.33 223.338 203.487 223.611 203.598C223.893 203.709 224.204 203.765 224.545 203.765Z" fill="#007EA7"/>
<path d="M248.533 209C248.447 209 248.375 208.974 248.315 208.923C248.264 208.863 248.238 208.791 248.238 208.706V201.538L246.114 203.176C246.045 203.227 245.973 203.249 245.896 203.24C245.819 203.231 245.755 203.193 245.704 203.125L245.371 202.702C245.32 202.626 245.299 202.549 245.307 202.472C245.324 202.395 245.367 202.331 245.435 202.28L248.226 200.13C248.285 200.087 248.341 200.061 248.392 200.053C248.443 200.044 248.499 200.04 248.558 200.04H249.211C249.297 200.04 249.365 200.07 249.416 200.13C249.467 200.181 249.493 200.249 249.493 200.334V208.706C249.493 208.791 249.467 208.863 249.416 208.923C249.365 208.974 249.297 209 249.211 209H248.533ZM252.945 209C252.869 209 252.805 208.974 252.753 208.923C252.711 208.863 252.689 208.795 252.689 208.718C252.689 208.676 252.694 208.642 252.702 208.616C252.719 208.59 252.732 208.569 252.741 208.552L254.699 205.826C254.486 205.877 254.255 205.902 254.008 205.902C253.53 205.894 253.103 205.809 252.728 205.646C252.352 205.484 252.032 205.267 251.768 204.994C251.503 204.712 251.303 204.396 251.166 204.046C251.03 203.697 250.961 203.33 250.961 202.946C250.961 202.57 251.025 202.203 251.153 201.845C251.29 201.486 251.49 201.162 251.755 200.872C252.028 200.582 252.365 200.351 252.766 200.181C253.167 200.002 253.641 199.912 254.187 199.912C254.725 199.912 255.194 199.997 255.595 200.168C256.005 200.33 256.346 200.556 256.619 200.846C256.901 201.128 257.105 201.448 257.233 201.806C257.37 202.165 257.438 202.536 257.438 202.92C257.438 203.27 257.387 203.59 257.285 203.88C257.182 204.17 257.058 204.43 256.913 204.661C256.777 204.891 256.64 205.105 256.504 205.301L254.046 208.744C254.012 208.787 253.965 208.842 253.905 208.91C253.846 208.97 253.756 209 253.637 209H252.945ZM254.187 204.866C254.545 204.866 254.874 204.789 255.173 204.635C255.48 204.473 255.723 204.251 255.902 203.97C256.081 203.679 256.171 203.334 256.171 202.933C256.171 202.532 256.081 202.19 255.902 201.909C255.723 201.619 255.48 201.397 255.173 201.243C254.874 201.081 254.545 201 254.187 201C253.837 201 253.513 201.081 253.214 201.243C252.916 201.397 252.677 201.619 252.497 201.909C252.318 202.19 252.229 202.532 252.229 202.933C252.229 203.334 252.318 203.679 252.497 203.97C252.677 204.251 252.916 204.473 253.214 204.635C253.513 204.789 253.837 204.866 254.187 204.866Z" fill="#007EA7"/>
<path d="M275.922 209C275.836 209 275.764 208.974 275.704 208.923C275.653 208.863 275.627 208.791 275.627 208.706V208.296C275.627 208.219 275.649 208.134 275.691 208.04C275.734 207.946 275.819 207.844 275.947 207.733L278.661 205.019C279.096 204.652 279.437 204.341 279.685 204.085C279.941 203.82 280.12 203.569 280.222 203.33C280.333 203.091 280.389 202.843 280.389 202.587C280.389 202.101 280.252 201.717 279.979 201.435C279.706 201.145 279.301 201 278.763 201C278.422 201 278.127 201.073 277.88 201.218C277.633 201.354 277.436 201.546 277.291 201.794C277.155 202.033 277.065 202.306 277.022 202.613C277.005 202.724 276.958 202.801 276.882 202.843C276.813 202.886 276.749 202.907 276.69 202.907H276.024C275.947 202.907 275.883 202.886 275.832 202.843C275.781 202.792 275.755 202.732 275.755 202.664C275.764 202.34 275.832 202.015 275.96 201.691C276.088 201.358 276.276 201.06 276.523 200.795C276.779 200.531 277.091 200.317 277.458 200.155C277.833 199.985 278.268 199.899 278.763 199.899C279.437 199.899 279.988 200.023 280.414 200.27C280.85 200.509 281.17 200.829 281.374 201.23C281.579 201.631 281.682 202.071 281.682 202.549C281.682 202.924 281.618 203.27 281.49 203.586C281.362 203.893 281.174 204.196 280.926 204.494C280.687 204.785 280.389 205.083 280.03 205.39L277.573 207.886H281.566C281.66 207.886 281.733 207.912 281.784 207.963C281.844 208.014 281.874 208.087 281.874 208.181V208.706C281.874 208.791 281.844 208.863 281.784 208.923C281.733 208.974 281.66 209 281.566 209H275.922ZM286.57 209.128C285.981 209.128 285.482 209.038 285.073 208.859C284.671 208.671 284.343 208.415 284.087 208.091C283.831 207.767 283.643 207.396 283.524 206.978C283.413 206.559 283.349 206.116 283.332 205.646C283.323 205.416 283.315 205.173 283.306 204.917C283.306 204.661 283.306 204.405 283.306 204.149C283.315 203.884 283.323 203.633 283.332 203.394C283.34 202.924 283.404 202.481 283.524 202.062C283.652 201.636 283.839 201.265 284.087 200.949C284.343 200.625 284.676 200.373 285.085 200.194C285.495 200.006 285.99 199.912 286.57 199.912C287.159 199.912 287.654 200.006 288.055 200.194C288.465 200.373 288.797 200.625 289.053 200.949C289.309 201.265 289.497 201.636 289.617 202.062C289.745 202.481 289.813 202.924 289.821 203.394C289.83 203.633 289.834 203.884 289.834 204.149C289.843 204.405 289.843 204.661 289.834 204.917C289.834 205.173 289.83 205.416 289.821 205.646C289.813 206.116 289.745 206.559 289.617 206.978C289.497 207.396 289.309 207.767 289.053 208.091C288.806 208.415 288.477 208.671 288.068 208.859C287.667 209.038 287.167 209.128 286.57 209.128ZM286.57 208.04C287.236 208.04 287.726 207.822 288.042 207.387C288.366 206.943 288.533 206.342 288.541 205.582C288.558 205.335 288.567 205.096 288.567 204.866C288.567 204.627 288.567 204.392 288.567 204.162C288.567 203.923 288.558 203.688 288.541 203.458C288.533 202.715 288.366 202.122 288.042 201.678C287.726 201.226 287.236 201 286.57 201C285.913 201 285.422 201.226 285.098 201.678C284.782 202.122 284.616 202.715 284.599 203.458C284.599 203.688 284.595 203.923 284.586 204.162C284.586 204.392 284.586 204.627 284.586 204.866C284.595 205.096 284.599 205.335 284.599 205.582C284.616 206.342 284.787 206.943 285.111 207.387C285.435 207.822 285.922 208.04 286.57 208.04Z" fill="#007EA7"/>
<path d="M307.922 209C307.836 209 307.764 208.974 307.704 208.923C307.653 208.863 307.627 208.791 307.627 208.706V208.296C307.627 208.219 307.649 208.134 307.691 208.04C307.734 207.946 307.819 207.844 307.947 207.733L310.661 205.019C311.096 204.652 311.437 204.341 311.685 204.085C311.941 203.82 312.12 203.569 312.222 203.33C312.333 203.091 312.389 202.843 312.389 202.587C312.389 202.101 312.252 201.717 311.979 201.435C311.706 201.145 311.301 201 310.763 201C310.422 201 310.127 201.073 309.88 201.218C309.633 201.354 309.436 201.546 309.291 201.794C309.155 202.033 309.065 202.306 309.022 202.613C309.005 202.724 308.958 202.801 308.882 202.843C308.813 202.886 308.749 202.907 308.69 202.907H308.024C307.947 202.907 307.883 202.886 307.832 202.843C307.781 202.792 307.755 202.732 307.755 202.664C307.764 202.34 307.832 202.015 307.96 201.691C308.088 201.358 308.276 201.06 308.523 200.795C308.779 200.531 309.091 200.317 309.458 200.155C309.833 199.985 310.268 199.899 310.763 199.899C311.437 199.899 311.988 200.023 312.414 200.27C312.85 200.509 313.17 200.829 313.374 201.23C313.579 201.631 313.682 202.071 313.682 202.549C313.682 202.924 313.618 203.27 313.49 203.586C313.362 203.893 313.174 204.196 312.926 204.494C312.687 204.785 312.389 205.083 312.03 205.39L309.573 207.886H313.566C313.66 207.886 313.733 207.912 313.784 207.963C313.844 208.014 313.874 208.087 313.874 208.181V208.706C313.874 208.791 313.844 208.863 313.784 208.923C313.733 208.974 313.66 209 313.566 209H307.922ZM318.045 209C317.96 209 317.887 208.974 317.828 208.923C317.777 208.863 317.751 208.791 317.751 208.706V201.538L315.626 203.176C315.558 203.227 315.485 203.249 315.409 203.24C315.332 203.231 315.268 203.193 315.217 203.125L314.884 202.702C314.833 202.626 314.811 202.549 314.82 202.472C314.837 202.395 314.879 202.331 314.948 202.28L317.738 200.13C317.798 200.087 317.853 200.061 317.905 200.053C317.956 200.044 318.011 200.04 318.071 200.04H318.724C318.809 200.04 318.877 200.07 318.929 200.13C318.98 200.181 319.005 200.249 319.005 200.334V208.706C319.005 208.791 318.98 208.863 318.929 208.923C318.877 208.974 318.809 209 318.724 209H318.045Z" fill="#007EA7"/>
<path d="M336.922 209C336.836 209 336.764 208.974 336.704 208.923C336.653 208.863 336.627 208.791 336.627 208.706V208.296C336.627 208.219 336.649 208.134 336.691 208.04C336.734 207.946 336.819 207.844 336.947 207.733L339.661 205.019C340.096 204.652 340.437 204.341 340.685 204.085C340.941 203.82 341.12 203.569 341.222 203.33C341.333 203.091 341.389 202.843 341.389 202.587C341.389 202.101 341.252 201.717 340.979 201.435C340.706 201.145 340.301 201 339.763 201C339.422 201 339.127 201.073 338.88 201.218C338.633 201.354 338.436 201.546 338.291 201.794C338.155 202.033 338.065 202.306 338.022 202.613C338.005 202.724 337.958 202.801 337.882 202.843C337.813 202.886 337.749 202.907 337.69 202.907H337.024C336.947 202.907 336.883 202.886 336.832 202.843C336.781 202.792 336.755 202.732 336.755 202.664C336.764 202.34 336.832 202.015 336.96 201.691C337.088 201.358 337.276 201.06 337.523 200.795C337.779 200.531 338.091 200.317 338.458 200.155C338.833 199.985 339.268 199.899 339.763 199.899C340.437 199.899 340.988 200.023 341.414 200.27C341.85 200.509 342.17 200.829 342.374 201.23C342.579 201.631 342.682 202.071 342.682 202.549C342.682 202.924 342.618 203.27 342.49 203.586C342.362 203.893 342.174 204.196 341.926 204.494C341.687 204.785 341.389 205.083 341.03 205.39L338.573 207.886H342.566C342.66 207.886 342.733 207.912 342.784 207.963C342.844 208.014 342.874 208.087 342.874 208.181V208.706C342.874 208.791 342.844 208.863 342.784 208.923C342.733 208.974 342.66 209 342.566 209H336.922ZM344.434 209C344.349 209 344.276 208.974 344.217 208.923C344.165 208.863 344.14 208.791 344.14 208.706V208.296C344.14 208.219 344.161 208.134 344.204 208.04C344.246 207.946 344.332 207.844 344.46 207.733L347.173 205.019C347.609 204.652 347.95 204.341 348.197 204.085C348.453 203.82 348.633 203.569 348.735 203.33C348.846 203.091 348.901 202.843 348.901 202.587C348.901 202.101 348.765 201.717 348.492 201.435C348.219 201.145 347.813 201 347.276 201C346.934 201 346.64 201.073 346.393 201.218C346.145 201.354 345.949 201.546 345.804 201.794C345.667 202.033 345.578 202.306 345.535 202.613C345.518 202.724 345.471 202.801 345.394 202.843C345.326 202.886 345.262 202.907 345.202 202.907H344.537C344.46 202.907 344.396 202.886 344.345 202.843C344.293 202.792 344.268 202.732 344.268 202.664C344.276 202.34 344.345 202.015 344.473 201.691C344.601 201.358 344.788 201.06 345.036 200.795C345.292 200.531 345.603 200.317 345.97 200.155C346.346 199.985 346.781 199.899 347.276 199.899C347.95 199.899 348.5 200.023 348.927 200.27C349.362 200.509 349.682 200.829 349.887 201.23C350.092 201.631 350.194 202.071 350.194 202.549C350.194 202.924 350.13 203.27 350.002 203.586C349.874 203.893 349.686 204.196 349.439 204.494C349.2 204.785 348.901 205.083 348.543 205.39L346.085 207.886H350.079C350.173 207.886 350.245 207.912 350.297 207.963C350.356 208.014 350.386 208.087 350.386 208.181V208.706C350.386 208.791 350.356 208.863 350.297 208.923C350.245 208.974 350.173 209 350.079 209H344.434Z" fill="#007EA7"/>
<path d="M368.922 209C368.836 209 368.764 208.974 368.704 208.923C368.653 208.863 368.627 208.791 368.627 208.706V208.296C368.627 208.219 368.649 208.134 368.691 208.04C368.734 207.946 368.819 207.844 368.947 207.733L371.661 205.019C372.096 204.652 372.437 204.341 372.685 204.085C372.941 203.82 373.12 203.569 373.222 203.33C373.333 203.091 373.389 202.843 373.389 202.587C373.389 202.101 373.252 201.717 372.979 201.435C372.706 201.145 372.301 201 371.763 201C371.422 201 371.127 201.073 370.88 201.218C370.633 201.354 370.436 201.546 370.291 201.794C370.155 202.033 370.065 202.306 370.022 202.613C370.005 202.724 369.958 202.801 369.882 202.843C369.813 202.886 369.749 202.907 369.69 202.907H369.024C368.947 202.907 368.883 202.886 368.832 202.843C368.781 202.792 368.755 202.732 368.755 202.664C368.764 202.34 368.832 202.015 368.96 201.691C369.088 201.358 369.276 201.06 369.523 200.795C369.779 200.531 370.091 200.317 370.458 200.155C370.833 199.985 371.268 199.899 371.763 199.899C372.437 199.899 372.988 200.023 373.414 200.27C373.85 200.509 374.17 200.829 374.374 201.23C374.579 201.631 374.682 202.071 374.682 202.549C374.682 202.924 374.618 203.27 374.49 203.586C374.362 203.893 374.174 204.196 373.926 204.494C373.687 204.785 373.389 205.083 373.03 205.39L370.573 207.886H374.566C374.66 207.886 374.733 207.912 374.784 207.963C374.844 208.014 374.874 208.087 374.874 208.181V208.706C374.874 208.791 374.844 208.863 374.784 208.923C374.733 208.974 374.66 209 374.566 209H368.922ZM379.327 209.128C378.789 209.128 378.32 209.064 377.919 208.936C377.518 208.799 377.181 208.62 376.908 208.398C376.635 208.177 376.426 207.933 376.281 207.669C376.144 207.404 376.071 207.131 376.063 206.85C376.063 206.773 376.089 206.713 376.14 206.67C376.191 206.628 376.255 206.606 376.332 206.606H376.959C377.036 206.606 377.104 206.623 377.164 206.658C377.223 206.692 377.275 206.764 377.317 206.875C377.403 207.182 377.548 207.421 377.753 207.592C377.966 207.763 378.209 207.882 378.482 207.95C378.764 208.01 379.045 208.04 379.327 208.04C379.916 208.04 380.394 207.899 380.761 207.618C381.127 207.336 381.311 206.922 381.311 206.376C381.311 205.821 381.145 205.425 380.812 205.186C380.479 204.947 380.018 204.827 379.429 204.827H378.213C378.128 204.827 378.055 204.802 377.996 204.75C377.945 204.699 377.919 204.627 377.919 204.533V204.187C377.919 204.11 377.932 204.046 377.957 203.995C377.991 203.935 378.026 203.884 378.06 203.842L380.543 201.128H376.767C376.682 201.128 376.609 201.102 376.549 201.051C376.498 201 376.473 200.927 376.473 200.834V200.347C376.473 200.253 376.498 200.181 376.549 200.13C376.609 200.07 376.682 200.04 376.767 200.04H381.874C381.968 200.04 382.041 200.07 382.092 200.13C382.151 200.181 382.181 200.253 382.181 200.347V200.808C382.181 200.868 382.164 200.923 382.13 200.974C382.105 201.017 382.075 201.06 382.041 201.102L379.57 203.854L379.775 203.867C380.338 203.884 380.829 203.987 381.247 204.174C381.674 204.362 382.002 204.644 382.233 205.019C382.471 205.386 382.591 205.851 382.591 206.414C382.591 206.986 382.45 207.477 382.169 207.886C381.887 208.287 381.499 208.595 381.004 208.808C380.509 209.021 379.95 209.128 379.327 209.128Z" fill="#007EA7"/>
</g>
<g opacity="0.5">
<path d="M25.54 41C25.4067 41 25.2933 40.9533 25.2 40.86C25.1067 40.7667 25.06 40.6533 25.06 40.52V27.5C25.06 27.3533 25.1067 27.2333 25.2 27.14C25.2933 27.0467 25.4067 27 25.54 27H30.9C31.94 27 32.8467 27.1667 33.62 27.5C34.3933 27.82 34.9933 28.3133 35.42 28.98C35.8467 29.6333 36.06 30.4533 36.06 31.44C36.06 32.44 35.8467 33.2667 35.42 33.92C34.9933 34.56 34.3933 35.04 33.62 35.36C32.8467 35.68 31.94 35.84 30.9 35.84H27.92V40.52C27.92 40.6533 27.8733 40.7667 27.78 40.86C27.7 40.9533 27.5867 41 27.44 41H25.54ZM27.88 33.62H30.8C31.5733 33.62 32.1667 33.44 32.58 33.08C32.9933 32.7067 33.2 32.16 33.2 31.44C33.2 30.7733 33.0067 30.24 32.62 29.84C32.2333 29.4267 31.6267 29.22 30.8 29.22H27.88V33.62ZM38.7236 41C38.5903 41 38.4769 40.9533 38.3836 40.86C38.2903 40.7667 38.2436 40.6533 38.2436 40.52V27.5C38.2436 27.3533 38.2903 27.2333 38.3836 27.14C38.4769 27.0467 38.5903 27 38.7236 27H43.9036C45.5169 27 46.7903 27.3733 47.7236 28.12C48.6569 28.8667 49.1236 29.9533 49.1236 31.38C49.1236 32.3667 48.8769 33.1867 48.3836 33.84C47.9036 34.4933 47.2569 34.9667 46.4436 35.26L49.3636 40.36C49.4036 40.44 49.4236 40.5133 49.4236 40.58C49.4236 40.7 49.3769 40.8 49.2836 40.88C49.2036 40.96 49.1103 41 49.0036 41H47.1836C46.9569 41 46.7836 40.94 46.6636 40.82C46.5436 40.7 46.4503 40.58 46.3836 40.46L43.8036 35.72H41.0236V40.52C41.0236 40.6533 40.9769 40.7667 40.8836 40.86C40.8036 40.9533 40.6903 41 40.5436 41H38.7236ZM41.0236 33.46H43.8436C44.6569 33.46 45.2636 33.28 45.6636 32.92C46.0636 32.5467 46.2636 32.0267 46.2636 31.36C46.2636 30.6933 46.0636 30.1733 45.6636 29.8C45.2769 29.4133 44.6703 29.22 43.8436 29.22H41.0236V33.46Z" fill="#007EA7"/>
</g>
</g>
<defs>
<filter id="filter0_d_908_4185" x="0" y="0" width="436" height="235" filterUnits="userSpaceOnUse" color-interpolation-filters="sRGB">
<feFlood flood-opacity="0" result="BackgroundImageFix"/>
<feColorMatrix in="SourceAlpha" type="matrix" values="0 0 0 0 0 0 0 0 0 0 0 0 0 0 0 0 0 0 127 0" result="hardAlpha"/>
<feOffset dy="4"/>
<feGaussianBlur stdDeviation="8"/>
<feComposite in2="hardAlpha" operator="out"/>
<feColorMatrix type="matrix" values="0 0 0 0 0 0 0 0 0 0.196078 0 0 0 0 0.286275 0 0 0 0.25 0"/>
<feBlend mode="normal" in2="BackgroundImageFix" result="effect1_dropShadow_908_4185"/>
<feBlend mode="normal" in="SourceGraphic" in2="effect1_dropShadow_908_4185" result="shape"/>
</filter>
</defs>
</svg>
