<svg width="40" height="40" viewBox="0 0 40 40" fill="none" xmlns="http://www.w3.org/2000/svg">
<path d="M19.1906 3.54299C19.6939 3.26334 20.306 3.26334 20.8094 3.54299L35.8094 11.8763C36.3385 12.1703 36.6666 12.728 36.6666 13.3333C36.6666 13.9385 36.3385 14.4962 35.8094 14.7902L20.8094 23.1235C20.306 23.4032 19.6939 23.4032 19.1906 23.1235L4.19057 14.7902C3.66146 14.4962 3.33331 13.9385 3.33331 13.3333C3.33331 12.728 3.66146 12.1703 4.19057 11.8763L19.1906 3.54299ZM8.43185 13.3333L20 19.76L31.5681 13.3333L20 6.90652L8.43185 13.3333Z" fill="#F8F9F9"/>
<path d="M3.54305 19.1905C3.99007 18.3859 5.00474 18.096 5.80938 18.543L20 26.4267L34.1906 18.543C34.9952 18.096 36.0099 18.3859 36.4569 19.1905C36.9039 19.9952 36.614 21.0098 35.8094 21.4568L20.8094 29.7902C20.306 30.0698 19.6939 30.0698 19.1906 29.7902L4.19057 21.4568C3.38593 21.0098 3.09603 19.9952 3.54305 19.1905Z" fill="#F8F9F9"/>
<path d="M3.54305 25.8572C3.99007 25.0525 5.00474 24.7626 5.80938 25.2097L20 33.0933L34.1906 25.2097C34.9952 24.7626 36.0099 25.0525 36.4569 25.8572C36.9039 26.6618 36.614 27.6765 35.8094 28.1235L20.8094 36.4568C20.306 36.7365 19.6939 36.7365 19.1906 36.4568L4.19057 28.1235C3.38593 27.6765 3.09603 26.6618 3.54305 25.8572Z" fill="#F8F9F9"/>
</svg>
