<svg width="118" height="32" viewBox="0 0 118 32" fill="none" xmlns="http://www.w3.org/2000/svg">
<path d="M37.0276 28.0904C37.0276 29.7876 35.6517 31.1634 33.9546 31.1634C32.2574 31.1634 30.8816 29.7876 30.8816 28.0904C30.8816 26.3933 32.2574 25.0174 33.9546 25.0174C35.6517 25.0174 37.0276 26.3933 37.0276 28.0904Z" fill="#F8F9F9"/>
<path d="M9.11866 25.0678C9.11866 26.765 7.74283 28.1408 6.04566 28.1408C4.34849 28.1408 2.97266 26.765 2.97266 25.0678C2.97266 23.3706 4.34849 21.9948 6.04566 21.9948C7.74283 21.9948 9.11866 23.3706 9.11866 25.0678Z" fill="#F8F9F9"/>
<path d="M24.9371 3.90943C24.9371 5.6066 23.5612 6.98243 21.8641 6.98243C20.1669 6.98243 18.7911 5.6066 18.7911 3.90943C18.7911 2.21226 20.1669 0.836426 21.8641 0.836426C23.5612 0.836426 24.9371 2.21226 24.9371 3.90943Z" fill="#F8F9F9"/>
<path d="M35.3147 3.9598C35.3147 4.68319 34.7283 5.26961 34.0049 5.26961C33.2816 5.26961 32.6951 4.68319 32.6951 3.9598C32.6951 3.23642 33.2816 2.65 34.0049 2.65C34.7283 2.65 35.3147 3.23642 35.3147 3.9598Z" fill="#F8F9F9"/>
<path d="M11.7383 10.6096C11.7383 11.333 11.1518 11.9194 10.4285 11.9194C9.70508 11.9194 9.11866 11.333 9.11866 10.6096C9.11866 9.88619 9.70508 9.29978 10.4285 9.29978C11.1518 9.29978 11.7383 9.88619 11.7383 10.6096Z" fill="#F8F9F9"/>
<path fill-rule="evenodd" clip-rule="evenodd" d="M17.2182 17.8369C16.6843 17.0373 16.373 16.0764 16.373 15.0428C16.373 14.5535 16.4427 14.0805 16.5728 13.6332L10.3733 11.0316L10.6852 10.2883L16.8598 12.8795C17.6692 11.1798 19.4027 10.0051 21.4107 10.0051L21.4107 2.65H22.2167V10.0692C23.414 10.2617 24.4701 10.8761 25.2278 11.7551L33.9861 3.8124L34.5276 4.40947L25.7062 12.4094C26.1769 13.1757 26.4484 14.0775 26.4484 15.0428C26.4484 16.276 26.0053 17.4057 25.2696 18.2813L34.5418 27.5536L33.9719 28.1235L24.7037 18.8553C23.8206 19.6187 22.6696 20.0805 21.4107 20.0805C19.9534 20.0805 18.6406 19.4617 17.7208 18.4726L6.56402 25.5591L6.13185 24.8787L17.2182 17.8369ZM18.1728 13.4305C18.0507 13.6677 17.9546 13.9206 17.8885 14.1853C17.8199 14.4598 17.7835 14.747 17.7835 15.0428C17.7835 15.7976 18.0207 16.4971 18.4246 17.0707C18.582 17.2943 18.7648 17.4987 18.9687 17.6799C19.5914 18.2331 20.4114 18.5692 21.3099 18.5692C22.1771 18.5692 22.9712 18.2561 23.5853 17.7369C23.791 17.563 23.9766 17.3659 24.1379 17.1497C24.5766 16.5619 24.8363 15.8326 24.8363 15.0428C24.8363 14.4949 24.7114 13.9763 24.4885 13.5137C24.3691 13.2661 24.2216 13.0345 24.0502 12.8231C23.5869 12.2518 22.9485 11.8282 22.2167 11.634C21.9585 11.5655 21.6886 11.5256 21.4107 11.5178C21.3772 11.5168 21.3436 11.5164 21.3099 11.5164C19.9433 11.5164 18.7582 12.2938 18.1728 13.4305Z" fill="#F8F9F9"/>
<path d="M38.9417 23C38.7939 23 38.673 22.953 38.579 22.8589C38.4849 22.7649 38.4379 22.644 38.4379 22.4962V9.39819C38.4379 9.25042 38.4849 9.12951 38.579 9.03547C38.673 8.94144 38.7939 8.89442 38.9417 8.89442H44.1809C45.4974 8.89442 46.6191 9.10936 47.5461 9.53924C48.473 9.95569 49.185 10.5737 49.6821 11.3931C50.1791 12.1992 50.4478 13.2 50.4881 14.3956C50.5015 14.9867 50.5083 15.5039 50.5083 15.9472C50.5083 16.3905 50.5015 16.901 50.4881 17.4787C50.4344 18.728 50.1657 19.7624 49.6821 20.5819C49.2119 21.4014 48.52 22.0126 47.6065 22.4156C46.7065 22.8052 45.5982 23 44.2816 23H38.9417ZM42.0449 20.0983H44.1809C44.7585 20.0983 45.2354 20.011 45.6116 19.8363C46.0012 19.6482 46.29 19.3594 46.4781 18.9698C46.6796 18.5803 46.7871 18.0698 46.8005 17.4384C46.8274 17.0488 46.8408 16.6995 46.8408 16.3905C46.8542 16.0815 46.8542 15.7726 46.8408 15.4636C46.8408 15.1546 46.8274 14.812 46.8005 14.4359C46.7736 13.5224 46.5318 12.8574 46.0751 12.441C45.6317 12.0111 44.9668 11.7961 44.0801 11.7961H42.0449V20.0983ZM58.6456 23.2015C57.3693 23.2015 56.2745 22.9933 55.361 22.5768C54.4609 22.1604 53.7556 21.5491 53.2451 20.7431C52.7481 19.9371 52.4727 18.9362 52.419 17.7406C52.4055 17.1898 52.3988 16.5988 52.3988 15.9674C52.3988 15.336 52.4055 14.7314 52.419 14.1538C52.4727 12.985 52.7548 11.9976 53.2653 11.1916C53.7758 10.3721 54.4878 9.75419 55.4013 9.33774C56.3148 8.90785 57.3962 8.69291 58.6456 8.69291C59.5322 8.69291 60.3517 8.8071 61.104 9.03547C61.8563 9.25042 62.5145 9.57283 63.0787 10.0027C63.643 10.4192 64.0796 10.9297 64.3886 11.5342C64.711 12.1253 64.8789 12.797 64.8923 13.5493C64.9058 13.6702 64.8655 13.7709 64.7714 13.8515C64.6908 13.9321 64.5901 13.9724 64.4692 13.9724H61.7488C61.5742 13.9724 61.4398 13.9388 61.3458 13.8717C61.2517 13.7911 61.1711 13.65 61.104 13.4485C60.9159 12.7365 60.6069 12.2529 60.177 11.9976C59.7606 11.729 59.2434 11.5946 58.6254 11.5946C57.8866 11.5946 57.3022 11.8029 56.8723 12.2193C56.4424 12.6223 56.2073 13.3007 56.167 14.2545C56.1267 15.3561 56.1267 16.4846 56.167 17.6399C56.2073 18.5937 56.4424 19.2788 56.8723 19.6953C57.3022 20.0983 57.8866 20.2998 58.6254 20.2998C59.2434 20.2998 59.7673 20.1654 60.1972 19.8968C60.6271 19.6281 60.9293 19.1445 61.104 18.4459C61.1577 18.2444 61.2316 18.1101 61.3256 18.0429C61.4331 17.9623 61.5742 17.922 61.7488 17.922H64.4692C64.5901 17.922 64.6908 17.9623 64.7714 18.0429C64.8655 18.1235 64.9058 18.2243 64.8923 18.3452C64.8789 19.0975 64.711 19.7759 64.3886 20.3804C64.0796 20.9715 63.643 21.482 63.0787 21.9119C62.5145 22.3283 61.8563 22.6507 61.104 22.8791C60.3517 23.094 59.5322 23.2015 58.6456 23.2015ZM72.7743 23.2015C71.5384 23.2015 70.4637 23 69.5502 22.597C68.6367 22.194 67.9247 21.5894 67.4142 20.7834C66.9037 19.9639 66.6216 18.943 66.5678 17.7205C66.5544 17.1428 66.5477 16.5652 66.5477 15.9875C66.5477 15.4099 66.5544 14.8255 66.5678 14.2344C66.6216 13.0253 66.9037 12.0111 67.4142 11.1916C67.9381 10.3587 68.6568 9.73404 69.5703 9.31759C70.4838 8.90113 71.5518 8.69291 72.7743 8.69291C73.9833 8.69291 75.0446 8.90113 75.9581 9.31759C76.8851 9.73404 77.6105 10.3587 78.1344 11.1916C78.6583 12.0111 78.9404 13.0253 78.9807 14.2344C79.0076 14.8255 79.021 15.4099 79.021 15.9875C79.021 16.5652 79.0076 17.1428 78.9807 17.7205C78.927 18.943 78.6449 19.9639 78.1344 20.7834C77.6239 21.5894 76.9119 22.194 75.9984 22.597C75.0849 23 74.0102 23.2015 72.7743 23.2015ZM72.7743 20.2998C73.4863 20.2998 74.0639 20.0848 74.5073 19.655C74.964 19.2251 75.2058 18.5399 75.2327 17.5996C75.2596 17.0085 75.273 16.451 75.273 15.9271C75.273 15.4031 75.2596 14.8591 75.2327 14.2948C75.2058 13.6634 75.0849 13.153 74.87 12.7634C74.6685 12.3604 74.3864 12.0648 74.0236 11.8767C73.6609 11.6887 73.2445 11.5946 72.7743 11.5946C72.3175 11.5946 71.9078 11.6887 71.5451 11.8767C71.1824 12.0648 70.8935 12.3604 70.6786 12.7634C70.4637 13.153 70.3428 13.6634 70.3159 14.2948C70.3025 14.8591 70.2957 15.4031 70.2957 15.9271C70.2957 16.451 70.3025 17.0085 70.3159 17.5996C70.3562 18.5399 70.598 19.2251 71.0413 19.655C71.4846 20.0848 72.0623 20.2998 72.7743 20.2998ZM81.8606 23C81.7128 23 81.5919 22.953 81.4979 22.8589C81.4038 22.7649 81.3568 22.644 81.3568 22.4962V9.39819C81.3568 9.25042 81.4038 9.12951 81.4979 9.03547C81.5919 8.94144 81.7128 8.89442 81.8606 8.89442H84.5608C84.7086 8.89442 84.8295 8.94144 84.9235 9.03547C85.0175 9.12951 85.0646 9.25042 85.0646 9.39819V22.4962C85.0646 22.644 85.0175 22.7649 84.9235 22.8589C84.8295 22.953 84.7086 23 84.5608 23H81.8606ZM88.3939 23C88.2461 23 88.1252 22.953 88.0311 22.8589C87.9371 22.7649 87.8901 22.644 87.8901 22.4962V9.39819C87.8901 9.25042 87.9371 9.12951 88.0311 9.03547C88.1252 8.94144 88.2461 8.89442 88.3939 8.89442H90.5298C90.7582 8.89442 90.9194 8.94815 91.0135 9.05562C91.1209 9.14966 91.1881 9.22355 91.215 9.27728L96.1318 17.0354V9.39819C96.1318 9.25042 96.1788 9.12951 96.2728 9.03547C96.3669 8.94144 96.4878 8.89442 96.6355 8.89442H99.0536C99.2014 8.89442 99.3223 8.94144 99.4164 9.03547C99.5104 9.12951 99.5574 9.25042 99.5574 9.39819V22.4962C99.5574 22.6306 99.5104 22.7515 99.4164 22.8589C99.3223 22.953 99.2014 23 99.0536 23H96.8975C96.6826 23 96.5214 22.9463 96.4139 22.8388C96.3199 22.7313 96.2594 22.6574 96.2325 22.6171L91.3157 15.1613V22.4962C91.3157 22.644 91.2687 22.7649 91.1747 22.8589C91.0806 22.953 90.9597 23 90.812 23H88.3939ZM107.633 23.2015C106.289 23.2015 105.174 23.0134 104.288 22.6373C103.401 22.2477 102.729 21.7439 102.273 21.126C101.816 20.508 101.574 19.8498 101.547 19.1512C101.547 19.0437 101.588 18.9497 101.668 18.8691C101.762 18.775 101.87 18.728 101.991 18.728H104.53C104.718 18.728 104.859 18.7616 104.953 18.8288C105.06 18.8959 105.154 18.9833 105.235 19.0907C105.342 19.2922 105.49 19.487 105.678 19.6751C105.88 19.8632 106.135 20.0177 106.444 20.1386C106.766 20.2461 107.163 20.2998 107.633 20.2998C108.412 20.2998 108.996 20.1789 109.386 19.9371C109.789 19.6953 109.991 19.3661 109.991 18.9497C109.991 18.6541 109.883 18.4123 109.668 18.2243C109.453 18.0227 109.104 17.8481 108.62 17.7003C108.15 17.5391 107.519 17.3779 106.726 17.2167C105.705 17.0018 104.832 16.7264 104.106 16.3905C103.394 16.0412 102.85 15.5912 102.474 15.0404C102.098 14.4762 101.91 13.7776 101.91 12.9447C101.91 12.1253 102.138 11.3931 102.595 10.7483C103.065 10.1035 103.717 9.5997 104.55 9.23698C105.383 8.87427 106.37 8.69291 107.512 8.69291C108.439 8.69291 109.252 8.81381 109.95 9.05562C110.662 9.29743 111.26 9.61985 111.744 10.0229C112.227 10.4259 112.59 10.8558 112.832 11.3125C113.087 11.7558 113.221 12.1924 113.235 12.6223C113.235 12.7298 113.194 12.8305 113.114 12.9246C113.033 13.0052 112.933 13.0455 112.812 13.0455H110.152C110.004 13.0455 109.876 13.0186 109.769 12.9649C109.661 12.9111 109.567 12.8238 109.487 12.7029C109.406 12.4074 109.191 12.1521 108.842 11.9372C108.506 11.7088 108.063 11.5946 107.512 11.5946C106.921 11.5946 106.457 11.7021 106.122 11.917C105.799 12.1186 105.638 12.4342 105.638 12.8641C105.638 13.1328 105.725 13.3679 105.9 13.5694C106.088 13.7709 106.39 13.9456 106.807 14.0933C107.237 14.2411 107.821 14.3956 108.56 14.5568C109.782 14.7852 110.77 15.074 111.522 15.4233C112.274 15.7591 112.825 16.2025 113.174 16.7532C113.524 17.2906 113.698 17.969 113.698 18.7885C113.698 19.702 113.436 20.4946 112.912 21.1663C112.402 21.8245 111.69 22.3283 110.776 22.6776C109.863 23.0269 108.815 23.2015 107.633 23.2015Z" fill="#F8F9F9"/>
</svg>
