<svg width="40" height="40" viewBox="0 0 40 40" fill="none" xmlns="http://www.w3.org/2000/svg">
<path opacity="0.2" d="M20 40C31.0457 40 40 31.0457 40 20C40 8.95431 31.0457 0 20 0C8.95431 0 0 8.95431 0 20C0 31.0457 8.95431 40 20 40Z" fill="#034DA2"/>
<path fill-rule="evenodd" clip-rule="evenodd" d="M20.007 33.8271C26.7839 33.8271 32.2776 28.331 32.2776 21.5512C32.2776 14.7714 26.7839 9.2753 20.007 9.2753C13.2301 9.2753 7.73633 14.7714 7.73633 21.5512C7.73633 28.331 13.2301 33.8271 20.007 33.8271Z" fill="white" stroke="#034DA2" stroke-width="0.628612"/>
<path fill-rule="evenodd" clip-rule="evenodd" d="M21.8906 11.9054L22.03 18.2978V18.2952C23.1766 19.0009 23.865 20.272 23.8362 21.6307C23.8075 22.9894 23.066 24.2295 21.8906 24.8848V31.1944C20.6461 31.4361 19.3675 31.4361 18.1229 31.1944V24.8848C16.898 24.2015 16.1485 22.8862 16.1771 21.47C16.2057 20.0539 17.0077 18.7707 18.2592 18.1388L18.1229 11.9054C19.3675 11.6637 20.6461 11.6637 21.8906 11.9054ZM16.0507 26.0176C15.0471 25.1321 14.3708 23.9271 14.133 22.6007H10.2397C10.6165 26.1626 12.901 29.1597 16.0507 30.5514V26.0176ZM25.8799 22.6007C25.6464 23.9036 24.9898 25.0901 24.0143 25.9718H24.0256V30.5202C27.1427 29.1209 29.3977 26.141 29.7732 22.6007H25.8799ZM16.0507 12.5542C12.9041 13.9427 10.6178 16.9372 10.2397 20.5017H14.133C14.3713 19.1756 15.0475 17.9709 16.0507 17.0854V12.5542ZM24.0256 17.1421V12.5822C27.1427 13.9821 29.3977 16.9614 29.7732 20.5017H25.8799C25.6475 19.2043 24.995 18.0222 24.0256 17.1421Z" fill="#034DA2"/>
</svg>
