<svg width="309" height="177" viewBox="0 0 309 177" fill="none" xmlns="http://www.w3.org/2000/svg">
<path opacity="0.12" d="M0.632324 177C0.632324 136.157 16.8573 96.9862 45.7379 68.1056C74.6185 39.225 113.789 23 154.632 23C195.476 23 234.646 39.2249 263.527 68.1055C292.407 96.9861 308.632 136.157 308.632 177L0.632324 177Z" fill="#2F80ED"/>
<path opacity="0.5" d="M1.47528 177H154.22L286 38.3139C125.768 -59.1685 -8.0094 44.8462 1.47528 177Z" fill="#007EA7"/>
<path d="M155.07 170.438L284.939 40.5" stroke="#003249" stroke-width="8" stroke-linecap="round" stroke-linejoin="round"/>
<path opacity="0.1" d="M158 170L287 41" stroke="#80CED7" stroke-width="4" stroke-linecap="round" stroke-linejoin="round"/>
<path d="M137.521 177C137.521 172.359 139.37 167.908 142.662 164.626C145.953 161.344 150.417 159.5 155.071 159.5C159.726 159.5 164.19 161.344 167.481 164.626C170.772 167.908 172.621 172.359 172.621 177L137.521 177Z" fill="#003249"/>
<path opacity="0.3" d="M141 177C141 173.287 142.475 169.726 145.101 167.101C147.726 164.475 151.287 163 155 163C158.713 163 162.274 164.475 164.899 167.101C167.525 169.726 169 173.287 169 177L141 177Z" fill="#007EA7"/>
</svg>
