<svg width="40" height="40" viewBox="0 0 40 40" fill="none" xmlns="http://www.w3.org/2000/svg">
<path opacity="0.2" d="M20 40C31.0457 40 40 31.0457 40 20C40 8.95431 31.0457 0 20 0C8.95431 0 0 8.95431 0 20C0 31.0457 8.95431 40 20 40Z" fill="#DFCF2B"/>
<path fill-rule="evenodd" clip-rule="evenodd" d="M27.6948 8.96147C28.6682 9.39257 28.7517 10.9292 28.1815 11.8193C27.4445 12.9665 24.8509 12.6328 25.2403 10.3591C25.136 10.3243 25.1499 10.2826 25.0178 10.4008C21.4994 16.7004 21.5898 23.7927 18.6139 28.7434C17.995 29.5987 17.4527 30.002 16.6739 30.447C15.8951 30.892 15.3319 31.1771 14.0595 31.2396C12.787 31.2953 12.2795 30.746 12.2795 30.746C10.8262 29.8073 11.6676 28.1176 12.4811 27.7769C13.2946 27.4362 13.8231 27.5753 14.2542 27.77C14.6922 27.9647 15.179 28.7365 15.179 28.7365C15.6865 27.4362 15.9021 26.727 16.4514 24.6202C18.6764 15.4419 19.6777 7.42481 27.6948 8.96147Z" fill="#DECC28"/>
<path fill-rule="evenodd" clip-rule="evenodd" d="M15.7075 18.1815H23.4881C24.107 18.1815 24.6146 18.6821 24.6146 19.3079C24.6146 19.9267 24.1139 20.4343 23.4881 20.4343H15.7075C15.0886 20.4343 14.5811 19.9337 14.5811 19.3079C14.588 18.689 15.0886 18.1815 15.7075 18.1815Z" fill="#DECC28"/>
<path fill-rule="evenodd" clip-rule="evenodd" d="M16.7085 14.5102H24.4891C25.108 14.5102 25.6155 15.0108 25.6155 15.6366C25.6155 16.2554 25.1149 16.763 24.4891 16.763H16.7085C16.0896 16.763 15.582 16.2624 15.582 15.6366C15.589 15.0177 16.0896 14.5102 16.7085 14.5102Z" fill="#DECC28"/>
</svg>
