<svg width="40" height="40" viewBox="0 0 40 40" fill="none" xmlns="http://www.w3.org/2000/svg">
<path opacity="0.2" fill-rule="evenodd" clip-rule="evenodd" d="M20 40C31.0457 40 40 31.0457 40 20C40 8.9543 31.0457 0 20 0C8.9543 0 0 8.9543 0 20C0 31.0457 8.9543 40 20 40Z" fill="#5C9DD5"/>
<path fill-rule="evenodd" clip-rule="evenodd" d="M20.0001 32.3077C13.2062 32.3077 7.69238 26.7939 7.69238 20C7.69238 13.2062 13.2062 7.69232 20.0001 7.69232C23.397 7.69232 26.4788 9.07078 28.7041 11.296L26.6561 13.344C24.9527 11.6406 22.5995 10.5871 20.0001 10.5871C14.8013 10.5871 10.5872 14.8012 10.5872 20C10.5872 25.1988 14.8013 29.4129 20.0001 29.4129C24.7065 29.4129 28.5958 25.9569 29.285 21.4474H20.0001V18.5526H32.2192C32.2782 19.0252 32.3078 19.5077 32.3078 20C32.3078 26.7939 26.7939 32.3077 20.0001 32.3077Z" fill="#003366"/>
</svg>
