<svg width="40" height="40" viewBox="0 0 40 40" fill="none" xmlns="http://www.w3.org/2000/svg">
<path opacity="0.2" d="M20 40C31.0457 40 40 31.0457 40 20C40 8.9543 31.0457 0 20 0C8.9543 0 0 8.9543 0 20C0 31.0457 8.9543 40 20 40Z" fill="#35B14F"/>
<path fill-rule="evenodd" clip-rule="evenodd" d="M13.8462 12.3077V21.2749C13.8462 21.2749 13.7981 29.6704 22.799 29.2127C22.799 29.2127 28.0795 21.8468 16.8944 14.9384C16.8944 14.9384 27.7195 18.0398 25.7754 29.2308C25.7754 29.2308 32.1118 25.1639 27.6235 17.8207C27.6235 17.8207 24.5512 12.5594 13.8462 12.3077Z" fill="#35B14F"/>
</svg>
