<svg width="40" height="40" viewBox="0 0 40 40" fill="none" xmlns="http://www.w3.org/2000/svg">
<path opacity="0.2" d="M20 40C31.0457 40 40 31.0457 40 20C40 8.9543 31.0457 0 20 0C8.9543 0 0 8.9543 0 20C0 31.0457 8.9543 40 20 40Z" fill="#00838D"/>
<path fill-rule="evenodd" clip-rule="evenodd" d="M11.3091 12.4533C13.2495 12.1087 15.406 12.5093 16.9051 13.9596C18.0079 15.0021 18.6414 16.4968 18.9821 18.0117C19.6634 17.9629 20.3314 18.0562 21.0034 18.1323C21.3904 16.2513 22.3288 14.4019 23.9034 13.4096C25.323 12.4964 27.066 12.2566 28.679 12.5582C28.2681 13.2689 27.8732 13.9912 27.4517 14.6948C26.5663 14.6201 25.6279 14.7738 24.8896 15.3409C23.9883 16.0101 23.5018 17.1688 23.3481 18.3132C23.7258 18.3132 24.1049 18.3132 24.4827 18.3161C24.8193 18.9982 25.1653 19.6745 25.5178 20.3465C24.7968 20.345 24.0771 20.3465 23.356 20.345C23.6105 21.4033 24.0148 22.4888 24.818 23.1982C25.539 23.8486 26.5557 24.0425 27.4517 23.7682C27.8732 24.4704 28.2668 25.1898 28.6777 25.8976C27.176 26.2265 25.5258 26.1719 24.1765 25.3089C22.525 24.2851 21.5415 22.3754 21.0233 20.4499C20.3367 20.5059 19.6634 20.3939 18.9834 20.3379C18.4691 22.3007 17.4883 24.2665 15.8037 25.3089C14.461 26.1705 12.8188 26.2279 11.3223 25.8976C11.7332 25.1898 12.1269 24.4704 12.5484 23.7682C13.4417 24.0396 14.457 23.8429 15.1741 23.1939C15.9786 22.4874 16.3869 21.4033 16.6453 20.345C15.9243 20.3465 15.2032 20.345 14.4822 20.3465C14.8348 19.6745 15.1807 18.9967 15.5187 18.3147C15.8938 18.3147 16.2689 18.3147 16.644 18.3118C16.4863 17.2033 16.0396 16.079 15.182 15.4012C14.4371 14.7852 13.4616 14.6201 12.547 14.6948C12.1242 13.9539 11.7359 13.1914 11.3091 12.4533Z" fill="white"/>
</svg>
