<svg width="40" height="40" viewBox="0 0 40 40" fill="none" xmlns="http://www.w3.org/2000/svg">
<path opacity="0.2" d="M20 40C31.0457 40 40 31.0457 40 20C40 8.9543 31.0457 0 20 0C8.9543 0 0 8.9543 0 20C0 31.0457 8.9543 40 20 40Z" fill="#8BC53E"/>
<path fill-rule="evenodd" clip-rule="evenodd" d="M13.8916 11.7024C15.4683 10.4447 17.4242 9.60333 19.4712 9.46571C22.356 9.26878 25.2455 10.2366 27.5645 11.8747C27.7085 11.9765 27.9713 12.1488 27.8019 12.3412C27.4457 12.781 27.0262 13.1681 26.6643 13.6033C26.3796 13.9032 26.141 14.2489 25.8114 14.5051C25.5371 14.5879 25.3354 14.3507 25.1268 14.2232C23.7437 13.2162 22.0195 12.6646 20.2906 12.6814C18.4512 12.6165 16.6509 13.4579 15.4119 14.7535C13.0964 17.2934 13.003 21.3605 14.9382 24.132C15.564 25.0226 16.448 25.7477 17.4784 26.1583C18.3647 26.532 19.3306 26.6618 20.2826 26.7692C21.9826 26.7659 23.6584 26.2556 25.1176 25.4198C25.4437 25.1379 25.2962 24.6724 25.3112 24.3043C25.2662 23.8366 25.3757 23.36 25.287 22.899C25.1602 22.5477 24.7292 22.6685 24.441 22.6651C23.0464 22.6372 21.6507 22.6584 20.2595 22.6036C20.2353 22.1102 20.2549 21.6179 20.2445 21.1256C23.0683 21.1245 25.8921 21.1222 28.7159 21.1267C28.7055 22.9975 28.7285 24.8682 28.7251 26.7401C26.4741 28.5773 23.602 29.7309 20.6433 29.7645C18.1722 29.8573 15.6216 29.2173 13.6657 27.7079C12.1006 26.5499 11.0068 24.8582 10.4824 23.0277C9.88303 20.8716 9.80005 18.5354 10.502 16.3927C11.1001 14.5376 12.3334 12.9096 13.8916 11.7024Z" fill="#8BC53E"/>
<path fill-rule="evenodd" clip-rule="evenodd" d="M20.2583 18.8811C23.0717 18.8789 25.8851 18.8778 28.6985 18.8822C28.6904 19.3768 28.6927 19.8724 28.6962 20.3681C25.8839 20.3625 23.0717 20.3804 20.2595 20.3748C20.2606 19.8769 20.2618 19.379 20.2583 18.8811Z" fill="#8BC53E"/>
</svg>
