<svg width="32" height="33" viewBox="0 0 32 33" fill="none" xmlns="http://www.w3.org/2000/svg">
<path d="M15.9999 3.83325C16.5049 3.83325 16.9666 4.11859 17.1924 4.5703L20.631 11.4474L28.1918 12.5471C28.694 12.6202 29.1111 12.972 29.268 13.4546C29.4248 13.9372 29.294 14.467 28.9307 14.8213L23.4278 20.1865L24.6657 27.7513C24.7475 28.2512 24.5389 28.7543 24.1274 29.0498C23.7158 29.3452 23.1724 29.3818 22.7249 29.1444L15.9999 25.576L9.27483 29.1444C8.82733 29.3818 8.28391 29.3452 7.87237 29.0498C7.46082 28.7543 7.25223 28.2512 7.33404 27.7513L8.57191 20.1865L3.06908 14.8213C2.70574 14.467 2.57499 13.9372 2.7318 13.4546C2.88861 12.972 3.30578 12.6202 3.80796 12.5471L11.3688 11.4474L14.8073 4.5703C15.0332 4.11859 15.4948 3.83325 15.9999 3.83325Z" fill="white"/>
</svg>
