<svg width="68" height="68" viewBox="0 0 68 68" fill="none" xmlns="http://www.w3.org/2000/svg">
<path d="M34 18C35.1046 18 36 18.8954 36 20V48C36 49.1046 35.1046 50 34 50C32.8954 50 32 49.1046 32 48V20C32 18.8954 32.8954 18 34 18ZM44 26C45.1046 26 46 26.8954 46 28V48C46 49.1046 45.1046 50 44 50C42.8954 50 42 49.1046 42 48V28C42 26.8954 42.8954 26 44 26ZM24 34C25.1046 34 26 34.8954 26 36V48C26 49.1046 25.1046 50 24 50C22.8954 50 22 49.1046 22 48V36C22 34.8954 22.8954 34 24 34Z" fill="white"/>
</svg>
