<svg width="40" height="40" viewBox="0 0 40 40" fill="none" xmlns="http://www.w3.org/2000/svg">
<path opacity="0.2" d="M20 40C31.0457 40 40 31.0457 40 20C40 8.9543 31.0457 0 20 0C8.9543 0 0 8.9543 0 20C0 31.0457 8.9543 40 20 40Z" fill="#35A4F3"/>
<path fill-rule="evenodd" clip-rule="evenodd" d="M10.2663 10.4055C11.345 9.21929 13.2114 8.90568 14.6491 9.58253C15.0386 9.75967 15.3866 10.0175 15.6885 10.3187C17.1338 11.7399 18.5702 13.1694 19.9914 14.6155C20.6911 13.9405 21.3752 13.2497 22.0594 12.5588L22.0594 12.5588C22.8613 11.7491 23.6632 10.9393 24.49 10.1553C25.9415 8.80849 28.4662 8.96358 29.7695 10.4434C31.0921 11.8109 31.1018 14.213 29.7833 15.586C28.3278 17.0664 26.8564 18.5316 25.385 19.9969L25.3848 19.997L25.3846 19.9972C25.977 20.5996 26.5759 21.1956 27.1748 21.7917L27.1748 21.7917C28.0602 22.6728 28.9456 23.554 29.8102 24.456C31.1693 25.8711 31.0611 28.3717 29.6317 29.6999C28.4234 30.9275 26.3516 31.1101 24.9166 30.1803C24.6037 29.9874 24.3449 29.7276 24.0871 29.4688L24.0871 29.4688L24.0871 29.4688C24.0224 29.4039 23.9578 29.339 23.8924 29.2753C23.1475 28.5363 22.4076 27.7925 21.6677 27.0488L21.6665 27.0476C21.1163 26.4946 20.5662 25.9416 20.0141 25.3907C19.3614 26.024 18.7195 26.6682 18.0776 27.3124C17.2168 28.1764 16.3561 29.0403 15.4693 29.8777C13.9909 31.219 11.4428 31.0129 10.1684 29.4876C9.02708 28.2428 8.92438 26.2102 9.87966 24.8289C10.0521 24.5738 10.2696 24.3556 10.4865 24.138L10.4865 24.138C10.5444 24.0799 10.6022 24.0219 10.6592 23.9632C11.7964 22.8039 12.9481 21.6583 14.1067 20.5197L14.3886 20.8024C14.8348 21.2502 15.281 21.6979 15.7319 22.1415C15.2226 22.6632 14.7047 23.1766 14.1869 23.6901C13.4 24.4703 12.613 25.2506 11.8557 26.0599C11.3022 26.6472 11.489 27.6466 12.0762 28.1415C12.4236 28.4654 12.9398 28.5392 13.3906 28.4358C13.8206 28.3091 14.1435 27.9893 14.4558 27.6799C14.5004 27.6358 14.5448 27.5919 14.5892 27.5487C15.187 26.9443 15.7874 26.342 16.3878 25.7398L16.3883 25.7393L16.3885 25.739C17.049 25.0765 17.7095 24.4138 18.3669 23.7482C17.2867 22.6627 16.2022 21.5816 15.1178 20.5004L15.1178 20.5004C13.4911 18.8787 11.8645 17.2571 10.2525 15.6211C8.88372 14.2447 8.89888 11.7771 10.2663 10.4055ZM11.8054 12.1479C11.4008 12.7097 11.4208 13.5761 11.9536 14.051C12.7507 14.8843 13.5684 15.6977 14.3861 16.511L14.3861 16.511C15.005 17.1267 15.6238 17.7423 16.2337 18.3664C16.638 17.9862 17.0289 17.5917 17.4199 17.1972L17.42 17.1972L17.42 17.1971C17.7328 16.8815 18.0457 16.5658 18.3655 16.2573L18.0867 15.9757L18.0865 15.9755C16.7626 14.6377 15.4386 13.3 14.0978 11.9798C13.8689 11.7551 13.5732 11.5972 13.2562 11.5435C12.7096 11.4353 12.121 11.6951 11.8054 12.1479ZM21.619 16.256C23.0548 14.8145 24.4905 13.373 25.9415 11.9467C26.251 11.6572 26.679 11.4904 27.1042 11.5221C27.5171 11.5628 27.9189 11.7723 28.1664 12.11C28.4772 12.5339 28.564 13.1232 28.3593 13.6112C28.2735 13.8202 28.1164 13.9848 27.9625 14.1462C27.9458 14.1636 27.9292 14.181 27.9127 14.1985C27.2057 14.9442 26.4742 15.666 25.7428 16.3878C25.0802 17.0417 24.4176 17.6955 23.7732 18.3671C23.2812 17.9067 22.8048 17.4297 22.3283 16.9526C22.2647 16.889 22.2012 16.8254 22.1376 16.7618C21.6056 17.3084 21.068 17.8495 20.5228 18.383C22.4575 20.3369 24.4051 22.2789 26.3529 24.221C26.7858 24.6526 27.2187 25.0843 27.6515 25.5161C28.0416 25.8876 28.431 26.3342 28.4841 26.8939C28.4979 27.3454 28.3201 27.8148 27.9644 28.1043C27.4351 28.5647 26.5363 28.6336 26.0201 28.1167C24.9216 27.0806 23.8615 26.0048 22.8016 24.9294C22.4118 24.5338 22.022 24.1382 21.6304 23.7447C21.9619 23.4212 22.2879 23.0926 22.6141 22.7638C22.821 22.5553 23.0279 22.3467 23.2363 22.1394C22.8497 21.7645 22.4697 21.3831 22.0896 21.0017C21.9296 20.8411 21.7695 20.6805 21.609 20.5204C21.3426 20.7899 21.0741 21.0575 20.8057 21.3251C20.5372 21.5927 20.2688 21.8603 20.0024 22.1298C19.3139 21.423 18.6068 20.7348 17.8994 20.0463L17.861 20.0089C19.1203 18.7646 20.3696 17.5103 21.619 16.256Z" fill="#35A4F3"/>
</svg>
