<svg width="28" height="28" viewBox="0 0 28 28" fill="none" xmlns="http://www.w3.org/2000/svg">
<path d="M16.6749 2.67508C17.1305 2.21947 17.8692 2.21947 18.3248 2.67508L22.9915 7.34175C23.4471 7.79736 23.4471 8.53605 22.9915 8.99167L18.3248 13.6583C17.8692 14.1139 17.1305 14.1139 16.6749 13.6583C16.2193 13.2027 16.2193 12.464 16.6749 12.0084L19.3499 9.33337L5.83317 9.33337C5.18884 9.33337 4.6665 8.81104 4.6665 8.16671C4.6665 7.52237 5.18884 7.00004 5.83317 7.00004L19.3499 7.00004L16.6749 4.325C16.2193 3.86939 16.2193 3.13069 16.6749 2.67508ZM11.3248 14.3418C11.7804 14.7974 11.7804 15.5361 11.3248 15.9917L8.64975 18.6667H22.1665C22.8108 18.6667 23.3332 19.189 23.3332 19.8334C23.3332 20.4777 22.8108 21 22.1665 21H8.64975L11.3248 23.6751C11.7804 24.1307 11.7804 24.8694 11.3248 25.325C10.8692 25.7806 10.1305 25.7806 9.67488 25.325L5.00821 20.6583C4.78942 20.4395 4.6665 20.1428 4.6665 19.8334C4.6665 19.524 4.78942 19.2272 5.00821 19.0084L9.67488 14.3418C10.1305 13.8861 10.8692 13.8861 11.3248 14.3418Z" fill="#F8F9F9"/>
</svg>
