<svg width="32" height="32" viewBox="0 0 32 32" fill="none" xmlns="http://www.w3.org/2000/svg">
<path d="M19.0574 3.05715C19.5781 2.53645 20.4223 2.53645 20.943 3.05715L26.2763 8.39048C26.797 8.91118 26.797 9.7554 26.2763 10.2761L20.943 15.6094C20.4223 16.1301 19.5781 16.1301 19.0574 15.6094C18.5367 15.0887 18.5367 14.2445 19.0574 13.7238L22.1145 10.6666L6.66683 10.6666C5.93045 10.6666 5.3335 10.0697 5.3335 9.33329C5.3335 8.59691 5.93045 7.99996 6.66683 7.99996L22.1145 7.99996L19.0574 4.94277C18.5367 4.42207 18.5367 3.57785 19.0574 3.05715ZM12.943 16.3905C13.4637 16.9112 13.4637 17.7554 12.943 18.2761L9.88578 21.3333H25.3335C26.0699 21.3333 26.6668 21.9302 26.6668 22.6666C26.6668 23.403 26.0699 24 25.3335 24H9.88578L12.943 27.0571C13.4637 27.5779 13.4637 28.4221 12.943 28.9428C12.4223 29.4635 11.5781 29.4635 11.0574 28.9428L5.72402 23.6094C5.47397 23.3594 5.3335 23.0202 5.3335 22.6666C5.3335 22.313 5.47397 21.9739 5.72402 21.7238L11.0574 16.3905C11.5781 15.8698 12.4223 15.8698 12.943 16.3905Z" fill="#003249"/>
</svg>
