<svg width="24" height="24" viewBox="0 0 24 24" fill="none" xmlns="http://www.w3.org/2000/svg">
<path d="M20.6699 1.92004H4.16992C2.92773 1.92004 1.91992 2.92786 1.91992 4.17004V20.67C1.91992 21.9122 2.92773 22.92 4.16992 22.92H20.6699C21.9121 22.92 22.9199 21.9122 22.9199 20.67V4.17004C22.9199 2.92786 21.9121 1.92004 20.6699 1.92004ZM18.3777 9.36379C18.3871 9.49504 18.3871 9.63098 18.3871 9.76223C18.3871 13.8263 15.2934 18.5091 9.64023 18.5091C7.89648 18.5091 6.2793 18.0029 4.91992 17.131C5.16836 17.1591 5.40742 17.1685 5.66055 17.1685C7.09961 17.1685 8.42148 16.681 9.47617 15.856C8.12617 15.8279 6.9918 14.9419 6.60273 13.7232C7.07617 13.7935 7.50273 13.7935 7.99023 13.6669C6.58398 13.381 5.5293 12.1435 5.5293 10.6482V10.6107C5.93711 10.8404 6.41523 10.981 6.9168 10.9997C6.49512 10.7192 6.14944 10.3387 5.91061 9.89215C5.67178 9.44556 5.54722 8.94679 5.54805 8.44036C5.54805 7.86848 5.69805 7.34348 5.96523 6.88879C7.4793 8.75442 9.75273 9.97317 12.3027 10.1044C11.8668 8.01848 13.4277 6.32629 15.3027 6.32629C16.1887 6.32629 16.9855 6.69661 17.548 7.29661C18.2418 7.16536 18.9074 6.90754 19.498 6.55598C19.2684 7.26848 18.7855 7.86848 18.148 8.24817C18.7668 8.18254 19.3668 8.00911 19.9199 7.77004C19.5027 8.38411 18.9777 8.92786 18.3777 9.36379Z" fill="#007EA7"/>
</svg>
