<svg width="40" height="41" viewBox="0 0 40 41" fill="none" xmlns="http://www.w3.org/2000/svg">
<path opacity="0.2" d="M20 40.5C31.0457 40.5 40 31.5457 40 20.5C40 9.4543 31.0457 0.5 20 0.5C8.9543 0.5 0 9.4543 0 20.5C0 31.5457 8.9543 40.5 20 40.5Z" fill="#8672C1"/>
<mask id="mask0_950_11004" style="mask-type:alpha" maskUnits="userSpaceOnUse" x="0" y="0" width="40" height="41">
<path d="M20 40.5C31.0457 40.5 40 31.5457 40 20.5C40 9.4543 31.0457 0.5 20 0.5C8.9543 0.5 0 9.4543 0 20.5C0 31.5457 8.9543 40.5 20 40.5Z" fill="white"/>
</mask>
<g mask="url(#mask0_950_11004)">
<path fill-rule="evenodd" clip-rule="evenodd" d="M19.5212 30.6309L18.7697 29.1519L10.9512 13.606C10.9512 13.606 10.7753 13.0868 11.1271 13.0081C12.2783 12.9766 13.3335 12.9766 14.3888 12.9609C14.3888 12.9609 14.5167 12.9609 14.6126 13.1969C14.7086 13.4329 20.8962 25.5958 20.8962 25.5958C20.8962 25.5958 22.2712 26.8546 23.3585 25.5801C24.2219 23.9122 27.4836 17.4768 29.706 13.0711C29.706 13.0711 30.1217 12.835 30.4735 12.9766C30.8252 13.1183 30.6653 13.4015 30.6653 13.4015L22.0314 30.4736C22.0474 30.4736 21.0081 31.9841 19.5212 30.6309Z" fill="url(#paint0_linear_950_11004)"/>
<path fill-rule="evenodd" clip-rule="evenodd" d="M11.0952 13.8264L16.6273 20.435L19.0416 29.6397L11.0952 13.8264Z" fill="#1F231C" fill-opacity="0.0549828"/>
<path fill-rule="evenodd" clip-rule="evenodd" d="M14.9644 13.8735L16.6112 20.4349L20.6084 24.9979L14.9644 13.8735V13.8735Z" fill="#15191C" fill-opacity="0.0549828"/>
<path fill-rule="evenodd" clip-rule="evenodd" d="M18.9937 29.5452L16.6113 20.4348L20.6085 24.9821L21.1361 27.1378L18.9937 29.5452Z" fill="url(#paint1_linear_950_11004)"/>
</g>
<defs>
<linearGradient id="paint0_linear_950_11004" x1="-24.1738" y1="42.6413" x2="40.7767" y2="115.933" gradientUnits="userSpaceOnUse">
<stop stop-color="#A875CF"/>
<stop offset="1" stop-color="#18BBFE"/>
</linearGradient>
<linearGradient id="paint1_linear_950_11004" x1="12.7093" y1="44.1975" x2="35.2164" y2="49.1513" gradientUnits="userSpaceOnUse">
<stop stop-opacity="0.1"/>
<stop offset="1" stop-color="white" stop-opacity="0.01"/>
</linearGradient>
</defs>
</svg>
