<svg width="24" height="24" viewBox="0 0 24 24" fill="none" xmlns="http://www.w3.org/2000/svg">
<path d="M10.6762 9.89348L15.1387 12.4294L10.6762 14.9654V9.89348ZM22.9199 4.17004V20.67C22.9199 21.9122 21.9121 22.92 20.6699 22.92H4.16992C2.92773 22.92 1.91992 21.9122 1.91992 20.67V4.17004C1.91992 2.92786 2.92773 1.92004 4.16992 1.92004H20.6699C21.9121 1.92004 22.9199 2.92786 22.9199 4.17004ZM20.9512 12.4341C20.9512 12.4341 20.9512 9.64036 20.5949 8.29973C20.398 7.55911 19.8215 6.97786 19.0855 6.78098C17.759 6.42004 12.4199 6.42004 12.4199 6.42004C12.4199 6.42004 7.08086 6.42004 5.7543 6.78098C5.01836 6.97786 4.4418 7.55911 4.24492 8.29973C3.88867 9.63567 3.88867 12.4341 3.88867 12.4341C3.88867 12.4341 3.88867 15.2279 4.24492 16.5685C4.4418 17.3091 5.01836 17.8669 5.7543 18.0638C7.08086 18.42 12.4199 18.42 12.4199 18.42C12.4199 18.42 17.759 18.42 19.0855 18.0591C19.8215 17.8622 20.398 17.3044 20.5949 16.5638C20.9512 15.2279 20.9512 12.4341 20.9512 12.4341Z" fill="#007EA7"/>
</svg>
